<svg width="60" height="60" viewBox="0 0 60 60" fill="none" xmlns="http://www.w3.org/2000/svg">
<path d="M0 10C0 4.47715 4.47715 0 10 0H60V60H0V10Z" fill="#EA544A"/>
<path d="M26.698 34.453C26.5747 33.6143 26.5993 32.8497 26.772 32.159C26.9693 31.4683 27.2407 30.827 27.586 30.235C27.9313 29.643 28.3137 29.1003 28.733 28.607C29.177 28.1137 29.5963 27.645 29.991 27.201C30.3857 26.7323 30.7063 26.2883 30.953 25.869C31.2243 25.425 31.36 24.9687 31.36 24.5C31.36 23.7353 31.1257 23.1557 30.657 22.761C30.213 22.3663 29.621 22.169 28.881 22.169C28.1903 22.169 27.5737 22.3293 27.031 22.65C26.513 22.9707 26.0073 23.3777 25.514 23.871L22.517 21.133C23.3803 20.1217 24.404 19.3077 25.588 18.691C26.7967 18.0743 28.1287 17.766 29.584 17.766C30.5707 17.766 31.4833 17.8893 32.322 18.136C33.1853 18.3827 33.9253 18.765 34.542 19.283C35.1833 19.801 35.6767 20.467 36.022 21.281C36.392 22.0703 36.577 23.0077 36.577 24.093C36.577 24.8577 36.4413 25.5483 36.17 26.165C35.8987 26.757 35.5533 27.312 35.134 27.83C34.7393 28.348 34.3077 28.8537 33.839 29.347C33.395 29.8157 32.9757 30.309 32.581 30.827C32.211 31.345 31.915 31.9 31.693 32.492C31.471 33.0593 31.397 33.713 31.471 34.453H26.698ZM29.066 43.444C28.1287 43.444 27.3517 43.1233 26.735 42.482C26.1183 41.816 25.81 41.002 25.81 40.04C25.81 39.0533 26.1183 38.2393 26.735 37.598C27.3517 36.932 28.1287 36.599 29.066 36.599C30.0033 36.599 30.7803 36.932 31.397 37.598C32.0383 38.2393 32.359 39.0533 32.359 40.04C32.359 41.002 32.0383 41.816 31.397 42.482C30.7803 43.1233 30.0033 43.444 29.066 43.444Z" fill="white"/>
</svg>
