<svg width="1475" height="1147" viewBox="0 0 1475 1147" fill="none" xmlns="http://www.w3.org/2000/svg">
<path d="M1457.5 1018C1457.5 1079.58 1407.58 1129.5 1346 1129.5C1284.42 1129.5 1234.5 1079.58 1234.5 1018C1234.5 956.42 1284.42 906.5 1346 906.5C1407.58 906.5 1457.5 956.42 1457.5 1018Z" stroke="#EA544A" stroke-opacity="0.48" stroke-width="35"/>
<circle cx="1242" cy="848" r="33.5" stroke="#EA544A" stroke-opacity="0.48" stroke-width="15"/>
<path d="M246 51C246 115.617 193.617 168 129 168C64.3827 168 12 115.617 12 51C12 34.3731 15.4611 18.5861 21.6906 4.2951C39.7352 -37.1005 81.0061 -66 129 -66C176.994 -66 218.265 -37.1005 236.309 4.2951C242.539 18.5861 246 34.3731 246 51Z" stroke="#EA544A" stroke-opacity="0.48" stroke-width="24"/>
</svg>
