<svg width="627" height="475" viewBox="0 0 627 475" fill="none" xmlns="http://www.w3.org/2000/svg">
<path d="M410.574 0L296.304 127.617C302.447 132.387 307.544 138.371 311.276 145.197C315.008 152.023 317.296 159.545 317.996 167.295C318.696 175.044 317.795 182.854 315.347 190.24C312.899 197.625 308.958 204.427 303.769 210.223C298.58 216.018 292.254 220.682 285.186 223.924C278.117 227.166 270.456 228.918 262.682 229.069C254.907 229.22 247.185 227.768 239.995 224.803C232.806 221.838 226.303 217.424 220.893 211.835L61.7207 389.598C107.613 425.287 164.1 444.621 222.222 444.534C366.958 444.534 484.29 327.13 484.29 182.306C484.377 114.251 457.931 48.8469 410.574 0Z" fill="#F2F2F2"/>
<path d="M263.519 209.531C282.402 209.531 297.709 194.214 297.709 175.32C297.709 156.426 282.402 141.109 263.519 141.109C244.637 141.109 229.329 156.426 229.329 175.32C229.329 194.214 244.637 209.531 263.519 209.531Z" fill="#F2F2F2"/>
<path d="M58.3389 473.858V239.337H430.893V473.858H58.3389Z" fill="white" stroke="#9A9A9A"/>
<path d="M468.099 122.087C468.099 122.087 444.022 121.11 443.371 145.853C442.721 170.596 443.371 191.757 443.371 191.757H491.525V147.155C491.525 147.155 490.549 123.715 468.099 122.087Z" fill="#2F2E41"/>
<path d="M458.7 166.182C458.7 166.182 460.129 182.392 455.364 183.823C450.6 185.253 457.27 205.754 457.27 205.754L476.329 210.045L487.288 188.113L482.523 181.916C482.523 181.916 474.423 170.95 478.235 163.322C482.047 155.693 458.7 166.182 458.7 166.182Z" fill="#FFB9B9"/>
<path opacity="0.1" d="M458.7 166.182C458.7 166.182 460.129 182.392 455.364 183.823C450.6 185.253 457.27 205.754 457.27 205.754L476.329 210.045L487.288 188.113L482.523 181.916C482.523 181.916 474.423 170.95 478.235 163.322C482.047 155.693 458.7 166.182 458.7 166.182Z" fill="black"/>
<path d="M465.37 173.811C475.633 173.811 483.953 165.486 483.953 155.217C483.953 144.948 475.633 136.623 465.37 136.623C455.108 136.623 446.788 144.948 446.788 155.217C446.788 165.486 455.108 173.811 465.37 173.811Z" fill="#FFB9B9"/>
<path d="M392.947 219.103C392.947 219.103 381.512 227.685 384.847 234.359C388.182 241.034 398.188 263.919 398.188 263.919C398.188 263.919 400.094 281.559 408.194 280.606C416.294 279.652 408.194 262.012 408.194 262.012L398.188 234.836L401.524 229.592L392.947 219.103Z" fill="#FFB9B9"/>
<path d="M547.324 221.964C547.324 221.964 560.189 231.976 552.565 235.79C544.942 239.604 512.542 257.721 512.542 257.721C512.542 257.721 493.006 272.501 490.624 261.058C488.241 249.616 503.489 250.093 503.489 250.093C503.489 250.093 533.983 231.499 535.412 227.685C536.842 223.871 547.324 221.964 547.324 221.964Z" fill="#FFB9B9"/>
<path d="M433.923 287.28C433.923 287.28 427.729 321.131 431.064 340.201C433.028 352.072 432.704 364.209 430.111 375.958L448.694 377.865C448.694 377.865 460.606 307.304 467.276 307.781C473.947 308.258 488.241 378.819 488.241 378.819L508.253 375.958C508.253 375.958 502.059 344.492 504.918 334.957C507.776 325.421 505.87 291.094 498.723 287.28C491.576 283.466 433.923 287.28 433.923 287.28Z" fill="#2F2E41"/>
<path d="M450.6 375.958C450.6 375.958 429.159 368.807 427.253 374.051C425.347 379.296 425.824 437.938 426.3 441.752C426.777 445.566 428.206 443.659 426.777 445.566C425.347 447.473 425.347 443.182 425.824 448.426C426.3 453.671 426.777 454.624 426.777 454.624C426.777 454.624 418.2 474.648 433.447 474.172C448.695 473.695 441.547 459.392 441.547 459.392C441.547 459.392 443.93 455.101 442.5 452.717C441.071 450.334 440.595 446.519 442.5 444.612C444.406 442.705 440.595 438.891 440.118 437.461C439.642 436.031 438.212 436.507 442.024 431.74C445.836 426.972 443.93 424.588 443.453 423.158C442.977 421.728 446.789 413.146 446.789 413.146L450.6 375.958Z" fill="#2F2E41"/>
<path d="M486.812 375.958C486.812 375.958 508.253 368.807 510.159 374.051C512.065 379.296 511.588 437.938 511.112 441.752C510.635 445.566 509.206 443.659 510.635 445.566C512.065 447.473 512.065 443.182 511.588 448.426C511.112 453.671 510.635 454.624 510.635 454.624C510.635 454.624 519.212 474.648 503.965 474.172C488.717 473.695 495.865 459.392 495.865 459.392C495.865 459.392 493.482 455.101 494.912 452.717C496.341 450.334 496.817 446.519 494.912 444.612C493.006 442.705 496.817 438.891 497.294 437.461C497.77 436.031 499.2 436.507 495.388 431.74C491.576 426.972 493.482 424.588 493.959 423.158C494.435 421.728 490.623 413.146 490.623 413.146L486.812 375.958Z" fill="#2F2E41"/>
<path d="M466.324 199.079C466.324 199.079 462.988 189.067 461.082 187.16C459.177 185.253 457.94 180.318 457.94 180.318C457.94 180.318 447.265 184.299 444.406 185.253C441.547 186.206 432.018 186.206 432.018 187.637V218.15C432.018 218.15 431.065 224.347 432.971 240.081C434.876 255.814 440.594 265.349 433.923 272.024C427.253 278.699 432.971 294.908 436.306 297.769C439.641 300.63 504.441 315.409 504.918 280.606C504.918 280.606 489.194 252.953 495.865 243.895C502.535 234.836 508.253 219.58 508.253 219.58V189.067C508.253 189.067 497.771 185.73 494.435 185.253C491.1 184.776 483 175.718 482.047 176.194C481.094 176.671 479.253 176.176 479.253 176.176L479.188 182.869L466.324 199.079Z" fill="#EA544A"/>
<path d="M438.688 190.02L432.018 187.637C432.018 187.637 423.918 191.927 423.918 192.881C423.918 193.835 419.153 198.125 416.77 200.032C414.388 201.939 407.718 202.416 407.718 203.37C407.718 204.323 386.753 219.58 388.659 221.964C390.565 224.347 396.759 232.929 400.094 232.929C403.429 232.929 411.529 224.347 412.959 223.871C414.388 223.394 429.159 214.335 433.924 215.766C438.688 217.196 438.688 190.02 438.688 190.02Z" fill="#EA544A"/>
<path d="M499.2 190.974L508.253 189.067C508.253 189.067 525.406 201.94 525.882 202.416C526.359 202.893 553.041 220.057 551.612 223.394C550.182 226.731 534.935 231.499 531.124 230.069C527.312 228.638 511.112 216.719 504.918 218.149C498.723 219.58 499.2 190.974 499.2 190.974Z" fill="#EA544A"/>
<path d="M485.144 149.257C487.406 139.751 486.481 137.226 486.481 137.226L457.524 130.063L447.438 139.83V149.923L448.456 153.071C448.456 153.071 452.643 149.922 451.016 145.365C451.016 145.365 483.517 156.094 485.144 149.257Z" fill="#2F2E41"/>
<path d="M485.505 143.936L482.762 146.873C487.088 146.926 481.326 181.765 483.238 187.398L490.385 187.561V141.155L485.505 143.936Z" fill="#2F2E41"/>
<path d="M447.503 155.455C448.292 155.455 448.932 154.068 448.932 152.356C448.932 150.645 448.292 149.257 447.503 149.257C446.713 149.257 446.073 150.645 446.073 152.356C446.073 154.068 446.713 155.455 447.503 155.455Z" fill="#FFB9B9"/>
<path d="M484.191 155.455C484.981 155.455 485.62 154.068 485.62 152.356C485.62 150.645 484.981 149.257 484.191 149.257C483.402 149.257 482.762 150.645 482.762 152.356C482.762 154.068 483.402 155.455 484.191 155.455Z" fill="#FFB9B9"/>
<path d="M225.567 420.73L224.711 419.874L261.504 383.059L228.947 350.483L229.803 349.626L263.215 383.059L225.567 420.73Z" fill="#2F2E41"/>
<path d="M260.242 396.079C267.261 396.079 272.951 390.385 272.951 383.361C272.951 376.338 267.261 370.644 260.242 370.644C253.222 370.644 247.532 376.338 247.532 383.361C247.532 390.385 253.222 396.079 260.242 396.079Z" fill="#EA544A"/>
<path d="M226.955 433.019C233.974 433.019 239.664 427.325 239.664 420.302C239.664 413.278 233.974 407.585 226.955 407.585C219.935 407.585 214.245 413.278 214.245 420.302C214.245 427.325 219.935 433.019 226.955 433.019Z" fill="#EA544A"/>
<path d="M227.988 350.483L227.132 349.626L263.925 312.811L231.368 280.235L232.224 279.379L265.636 312.811L227.988 350.483Z" fill="#2F2E41"/>
<path d="M231.796 292.524C238.816 292.524 244.506 286.83 244.506 279.807C244.506 272.783 238.816 267.089 231.796 267.089C224.777 267.089 219.087 272.783 219.087 279.807C219.087 286.83 224.777 292.524 231.796 292.524Z" fill="#EA544A"/>
<path d="M262.663 325.831C269.682 325.831 275.372 320.137 275.372 313.114C275.372 306.09 269.682 300.397 262.663 300.397C255.643 300.397 249.953 306.09 249.953 313.114C249.953 320.137 255.643 325.831 262.663 325.831Z" fill="#EA544A"/>
<path d="M229.375 362.772C236.395 362.772 242.085 357.078 242.085 350.054C242.085 343.031 236.395 337.337 229.375 337.337C222.356 337.337 216.666 343.031 216.666 350.054C216.666 357.078 222.356 362.772 229.375 362.772Z" fill="#EA544A"/>
<path opacity="0.3" d="M137.383 253.767H74.4414V265.273H137.383V253.767Z" fill="#EA544A"/>
<path opacity="0.3" d="M388.547 383.967H325.604V386.995H388.547V383.967Z" fill="#EA544A"/>
<path opacity="0.3" d="M388.547 393.051H325.604V396.079H388.547V393.051Z" fill="#EA544A"/>
<path opacity="0.3" d="M388.547 402.134H325.604V405.162H388.547V402.134Z" fill="#EA544A"/>
<path opacity="0.3" d="M388.547 411.218H325.604V414.246H388.547V411.218Z" fill="#EA544A"/>
<path opacity="0.3" d="M388.547 420.302H325.604V423.33H388.547V420.302Z" fill="#EA544A"/>
<path opacity="0.3" d="M388.547 429.386H325.604V432.414H388.547V429.386Z" fill="#EA544A"/>
<path d="M40.4023 449.937C44.5867 465.414 58.9194 475 58.9194 475C58.9194 475 66.4677 459.492 62.2832 444.014C58.0988 428.536 43.7662 418.951 43.7662 418.951C43.7662 418.951 36.2179 434.459 40.4023 449.937Z" fill="#3F3D56"/>
<path d="M46.5514 446.61C58.0335 457.794 59.4359 474.987 59.4359 474.987C59.4359 474.987 42.2222 474.047 30.7401 462.863C19.2579 451.678 17.8555 434.486 17.8555 434.486C17.8555 434.486 35.0692 435.426 46.5514 446.61Z" fill="#EA544A"/>
<path d="M627 473.593H0V474.804H627V473.593Z" fill="#3F3D56"/>
<path d="M592.201 436.336C592.197 433.652 591.385 431.032 589.87 428.817C588.355 426.602 586.208 424.896 583.709 423.921C586.604 422.796 589.014 420.693 590.523 417.977C592.032 415.261 592.545 412.103 591.973 409.048C591.4 405.994 589.779 403.236 587.389 401.251C585 399.267 581.992 398.181 578.886 398.181C575.78 398.181 572.772 399.267 570.383 401.251C567.993 403.236 566.372 405.994 565.799 409.048C565.227 412.103 565.74 415.261 567.249 417.977C568.758 420.693 571.168 422.796 574.063 423.921C571.562 424.893 569.413 426.599 567.898 428.814C566.382 431.029 565.571 433.651 565.571 436.336C565.571 439.02 566.382 441.642 567.898 443.858C569.413 446.073 571.562 447.779 574.063 448.75C571.168 449.876 568.758 451.979 567.249 454.695C565.74 457.411 565.227 460.569 565.799 463.623C566.372 466.678 567.993 469.436 570.383 471.42C572.772 473.405 575.78 474.491 578.886 474.491C581.992 474.491 585 473.405 587.389 471.42C589.779 469.436 591.4 466.678 591.973 463.623C592.545 460.569 592.032 457.411 590.523 454.695C589.014 451.979 586.604 449.876 583.709 448.75C586.208 447.776 588.355 446.07 589.87 443.855C591.385 441.64 592.197 439.02 592.201 436.336ZM566.782 411.507C566.78 409.228 567.42 406.995 568.63 405.065C569.839 403.134 571.568 401.584 573.619 400.592C575.669 399.601 577.957 399.208 580.22 399.459C582.484 399.71 584.63 400.595 586.414 402.012C588.197 403.429 589.545 405.321 590.302 407.47C591.059 409.619 591.195 411.938 590.694 414.161C590.193 416.384 589.075 418.42 587.47 420.036C585.864 421.652 583.836 422.782 581.617 423.296C579.816 422.919 577.956 422.919 576.155 423.296C573.493 422.677 571.118 421.175 569.416 419.035C567.715 416.895 566.786 414.242 566.782 411.507ZM590.99 461.165C590.992 463.443 590.352 465.676 589.142 467.607C587.933 469.538 586.204 471.088 584.153 472.08C582.103 473.071 579.815 473.464 577.552 473.213C575.288 472.962 573.142 472.077 571.358 470.659C569.575 469.242 568.227 467.351 567.47 465.202C566.713 463.053 566.577 460.734 567.078 458.511C567.579 456.288 568.697 454.252 570.302 452.636C571.908 451.02 573.936 449.89 576.155 449.376C577.956 449.753 579.816 449.753 581.617 449.376C584.279 449.995 586.654 451.497 588.356 453.637C590.057 455.777 590.986 458.43 590.99 461.165ZM581.617 448.125C579.816 447.748 577.956 447.748 576.155 448.125C573.49 447.51 571.113 446.009 569.411 443.868C567.709 441.727 566.782 439.072 566.782 436.336C566.782 433.6 567.709 430.945 569.411 428.804C571.113 426.662 573.49 425.162 576.155 424.547C577.956 424.924 579.816 424.924 581.617 424.547C584.282 425.162 586.659 426.662 588.361 428.804C590.063 430.945 590.99 433.6 590.99 436.336C590.99 439.072 590.063 441.727 588.361 443.868C586.659 446.009 584.282 447.51 581.617 448.125Z" fill="#3F3D56"/>
<path d="M64.4553 215.904C61.8219 215.904 59.2477 215.123 57.0581 213.659C54.8685 212.195 53.1619 210.114 52.1541 207.68C51.1464 205.245 50.8827 202.566 51.3965 199.982C51.9102 197.398 53.1783 195.024 55.0404 193.16C56.9025 191.297 59.2749 190.028 61.8577 189.514C64.4405 189 67.1177 189.264 69.5506 190.272C71.9836 191.281 74.063 192.988 75.5261 195.179C76.9891 197.37 77.77 199.946 77.77 202.581C77.766 206.113 76.3619 209.5 73.8658 211.997C71.3697 214.495 67.9854 215.9 64.4553 215.904ZM64.4553 190.469C62.0613 190.469 59.7211 191.18 57.7305 192.511C55.74 193.841 54.1886 195.733 53.2724 197.946C52.3563 200.159 52.1166 202.595 52.5836 204.944C53.0507 207.293 54.2035 209.451 55.8963 211.145C57.5891 212.839 59.7459 213.993 62.0939 214.46C64.4419 214.927 66.8756 214.688 69.0874 213.771C71.2992 212.854 73.1896 211.302 74.5196 209.31C75.8497 207.318 76.5596 204.977 76.5596 202.581C76.556 199.37 75.2796 196.291 73.0104 194.021C70.7411 191.75 67.6645 190.473 64.4553 190.469Z" fill="#3F3D56"/>
<path d="M347.089 83.2813C344.456 83.2813 341.881 82.4999 339.692 81.036C337.502 79.572 335.796 77.4913 334.788 75.0569C333.78 72.6224 333.517 69.9437 334.03 67.3593C334.544 64.7749 335.812 62.401 337.674 60.5378C339.536 58.6746 341.909 57.4057 344.492 56.8916C347.074 56.3776 349.751 56.6414 352.184 57.6498C354.617 58.6581 356.697 60.3658 358.16 62.5567C359.623 64.7476 360.404 67.3234 360.404 69.9584C360.4 73.4907 358.996 76.877 356.5 79.3747C354.003 81.8723 350.619 83.2773 347.089 83.2813ZM347.089 57.8468C344.695 57.8468 342.355 58.5571 340.364 59.888C338.374 61.2188 336.822 63.1104 335.906 65.3235C334.99 67.5366 334.75 69.9719 335.217 72.3213C335.684 74.6707 336.837 76.8288 338.53 78.5227C340.223 80.2165 342.38 81.37 344.728 81.8374C347.076 82.3047 349.509 82.0648 351.721 81.1481C353.933 80.2314 355.823 78.6791 357.153 76.6873C358.483 74.6956 359.193 72.3539 359.193 69.9584C359.19 66.7473 357.913 63.6688 355.644 61.3982C353.375 59.1276 350.298 57.8504 347.089 57.8468Z" fill="#3F3D56"/>
</svg>
