<svg width="618" height="437" viewBox="0 0 618 437" fill="none" xmlns="http://www.w3.org/2000/svg">
<g clip-path="url(#clip0)">
<path d="M41.4709 437L40.7164 435.603C50.8323 430.125 63.422 423.308 69.9977 412.121C76.48 401.092 76.6254 386.117 70.3773 373.038C65.0601 361.906 55.2926 351.934 42.131 344.198C39.5349 342.672 36.8097 341.226 34.1742 339.827C27.8037 336.447 21.2163 332.951 15.7847 327.991C8.30361 321.16 2.64324 309.697 6.8621 299.487C8.24959 296.228 10.5219 293.423 13.421 291.392C16.3202 289.361 19.7299 288.185 23.2632 287.997L23.3527 289.583C20.1158 289.755 16.9918 290.832 14.3353 292.691C11.6788 294.551 9.59609 297.119 8.32357 300.104C4.40314 309.593 9.78194 320.36 16.8536 326.818C22.1368 331.642 28.6339 335.089 34.917 338.424C37.5675 339.83 40.3084 341.285 42.9343 342.828C56.3697 350.725 66.3543 360.934 71.8084 372.352C78.2811 385.901 78.1113 401.449 71.3649 412.927C64.5651 424.495 51.7601 431.429 41.4709 437Z" fill="#F1F1F1"/>
<path d="M33.3173 296.369C40.9834 296.369 47.1981 293.346 47.1981 289.618C47.1981 285.89 40.9834 282.867 33.3173 282.867C25.6512 282.867 19.4365 285.89 19.4365 289.618C19.4365 293.346 25.6512 296.369 33.3173 296.369Z" fill="#F1F1F1"/>
<path d="M44.4218 340.844C52.0879 340.844 58.3026 337.821 58.3026 334.093C58.3026 330.365 52.0879 327.342 44.4218 327.342C36.7557 327.342 30.541 330.365 30.541 334.093C30.541 337.821 36.7557 340.844 44.4218 340.844Z" fill="#F1F1F1"/>
<path d="M19.04 347.991C26.7061 347.991 32.9207 344.969 32.9207 341.241C32.9207 337.512 26.7061 334.49 19.04 334.49C11.3738 334.49 5.15918 337.512 5.15918 341.241C5.15918 344.969 11.3738 347.991 19.04 347.991Z" fill="#F1F1F1"/>
<path d="M58.6991 385.319C66.3653 385.319 72.5799 382.296 72.5799 378.568C72.5799 374.84 66.3653 371.817 58.6991 371.817C51.033 371.817 44.8184 374.84 44.8184 378.568C44.8184 382.296 51.033 385.319 58.6991 385.319Z" fill="#F1F1F1"/>
<path d="M86.4609 385.319C94.127 385.319 100.342 382.296 100.342 378.568C100.342 374.84 94.127 371.817 86.4609 371.817C78.7947 371.817 72.5801 374.84 72.5801 378.568C72.5801 382.296 78.7947 385.319 86.4609 385.319Z" fill="#F1F1F1"/>
<path d="M597.802 368.508H371.876C366.521 368.502 361.388 366.369 357.601 362.578C353.815 358.786 351.685 353.646 351.679 348.284V20.2233C351.685 14.8616 353.815 9.72127 357.601 5.92997C361.388 2.13867 366.521 0.00605181 371.876 0H597.802C603.157 0.00605391 608.291 2.13867 612.078 5.92997C615.864 9.72127 617.994 14.8616 618 20.2233V348.284C617.994 353.646 615.864 358.786 612.078 362.578C608.291 366.369 603.157 368.502 597.802 368.508Z" fill="#E6E6E6"/>
<path d="M598.2 355.605H371.478C369.827 355.603 368.245 354.946 367.078 353.777C365.91 352.608 365.254 351.024 365.252 349.371V19.1371C365.254 17.4843 365.91 15.8997 367.078 14.731C368.245 13.5623 369.827 12.9049 371.478 12.903H598.2C599.85 12.9049 601.433 13.5623 602.6 14.731C603.767 15.8997 604.424 17.4843 604.426 19.1371V349.371C604.424 351.024 603.767 352.608 602.6 353.777C601.433 354.946 599.85 355.603 598.2 355.605Z" fill="white"/>
<path d="M483.98 7.91387C484.929 7.91387 485.698 7.14362 485.698 6.19347C485.698 5.24333 484.929 4.47308 483.98 4.47308C483.031 4.47308 482.262 5.24333 482.262 6.19347C482.262 7.14362 483.031 7.91387 483.98 7.91387Z" fill="white"/>
<path d="M576.223 230.357H393.456C393.304 230.357 393.159 230.297 393.051 230.189C392.944 230.082 392.884 229.936 392.884 229.784V142.072C392.884 141.92 392.944 141.775 393.051 141.667C393.159 141.56 393.304 141.499 393.456 141.499C393.607 141.499 393.753 141.56 393.86 141.667C393.967 141.775 394.028 141.92 394.028 142.072V229.212H576.223C576.375 229.212 576.52 229.273 576.626 229.38C576.733 229.487 576.793 229.633 576.793 229.784C576.793 229.936 576.733 230.081 576.626 230.188C576.52 230.296 576.375 230.356 576.223 230.357Z" fill="#3F3D56"/>
<path d="M432.505 224.057H415.882C415.431 224.057 415 223.877 414.681 223.559C414.363 223.24 414.184 222.808 414.184 222.357V199.412C414.184 198.962 414.363 198.53 414.681 198.211C415 197.892 415.431 197.713 415.882 197.713H432.505C432.955 197.713 433.387 197.892 433.705 198.211C434.023 198.53 434.202 198.962 434.203 199.412V222.357C434.202 222.808 434.023 223.24 433.705 223.559C433.387 223.877 432.955 224.057 432.505 224.057Z" fill="#EA544A"/>
<path d="M462.82 224.057H446.197C445.747 224.057 445.315 223.877 444.997 223.559C444.679 223.24 444.5 222.808 444.499 222.357V177.65C444.5 177.199 444.679 176.767 444.997 176.448C445.315 176.129 445.747 175.95 446.197 175.95H462.82C463.271 175.95 463.702 176.129 464.02 176.448C464.339 176.767 464.518 177.199 464.518 177.65V222.357C464.518 222.808 464.339 223.24 464.02 223.559C463.702 223.877 463.271 224.057 462.82 224.057Z" fill="#EA544A"/>
<path d="M493.135 224.057H476.511C476.061 224.057 475.63 223.877 475.311 223.559C474.993 223.24 474.814 222.808 474.813 222.357V199.412C474.814 198.962 474.993 198.53 475.311 198.211C475.63 197.892 476.061 197.713 476.511 197.713H493.135C493.585 197.713 494.017 197.892 494.335 198.211C494.653 198.53 494.832 198.962 494.833 199.412V222.357C494.832 222.808 494.653 223.24 494.335 223.559C494.017 223.877 493.585 224.057 493.135 224.057Z" fill="#EA544A"/>
<path d="M523.449 224.057H506.826C506.386 224.067 505.96 223.901 505.642 223.597C505.324 223.293 505.139 222.875 505.128 222.434V168.982C505.139 168.542 505.324 168.123 505.642 167.819C505.96 167.515 506.386 167.35 506.826 167.359H523.449C523.889 167.35 524.315 167.515 524.633 167.819C524.951 168.123 525.136 168.542 525.147 168.982V222.434C525.136 222.875 524.951 223.293 524.633 223.597C524.315 223.901 523.889 224.067 523.449 224.057Z" fill="#EA544A"/>
<path d="M553.765 224.057H537.141C536.691 224.057 536.26 223.877 535.941 223.559C535.623 223.24 535.444 222.808 535.443 222.357V153.596C535.444 153.145 535.623 152.713 535.941 152.394C536.26 152.076 536.691 151.896 537.141 151.896H553.765C554.215 151.896 554.646 152.076 554.965 152.394C555.283 152.713 555.462 153.145 555.463 153.596V222.357C555.462 222.808 555.283 223.24 554.965 223.559C554.646 223.877 554.215 224.057 553.765 224.057Z" fill="#EA544A"/>
<path d="M424.194 190.84C426.089 190.84 427.625 189.302 427.625 187.404C427.625 185.506 426.089 183.967 424.194 183.967C422.298 183.967 420.762 185.506 420.762 187.404C420.762 189.302 422.298 190.84 424.194 190.84Z" fill="#3F3D56"/>
<path d="M454.508 168.505C456.403 168.505 457.94 166.966 457.94 165.068C457.94 163.17 456.403 161.632 454.508 161.632C452.613 161.632 451.076 163.17 451.076 165.068C451.076 166.966 452.613 168.505 454.508 168.505Z" fill="#3F3D56"/>
<path d="M484.823 190.84C486.719 190.84 488.255 189.302 488.255 187.404C488.255 185.506 486.719 183.967 484.823 183.967C482.928 183.967 481.392 185.506 481.392 187.404C481.392 189.302 482.928 190.84 484.823 190.84Z" fill="#3F3D56"/>
<path d="M515.138 157.623C517.033 157.623 518.57 156.085 518.57 154.187C518.57 152.289 517.033 150.751 515.138 150.751C513.243 150.751 511.706 152.289 511.706 154.187C511.706 156.085 513.243 157.623 515.138 157.623Z" fill="#3F3D56"/>
<path d="M545.453 145.023C547.349 145.023 548.885 143.485 548.885 141.587C548.885 139.689 547.349 138.151 545.453 138.151C543.558 138.151 542.021 139.689 542.021 141.587C542.021 143.485 543.558 145.023 545.453 145.023Z" fill="#3F3D56"/>
<path d="M484.895 188.173L454.508 165.385L424.536 187.862L423.85 186.945L454.508 163.953L484.751 186.634L514.803 153.704L514.924 153.655L545.239 141.425L545.667 142.488L515.472 154.669L484.895 188.173Z" fill="#3F3D56"/>
<path d="M217.832 178.286C216.672 178.285 215.526 178.539 214.475 179.031C213.424 179.523 212.494 180.24 211.751 181.132L176.209 180.019L174.817 174.02L156.424 183.007L158.803 199.438L212.97 192.494C213.967 193.269 215.134 193.795 216.375 194.028C217.615 194.26 218.894 194.193 220.103 193.832C221.312 193.47 222.418 192.825 223.328 191.949C224.238 191.074 224.926 189.993 225.335 188.798C225.745 187.602 225.863 186.326 225.68 185.075C225.497 183.825 225.019 182.636 224.285 181.608C223.551 180.58 222.583 179.742 221.46 179.164C220.338 178.586 219.094 178.285 217.832 178.286H217.832Z" fill="#FFB6B6"/>
<path d="M151.996 426.552H161.72L166.347 388.996L151.994 388.997L151.996 426.552Z" fill="#FFB6B6"/>
<path d="M149.516 423.373L168.666 423.372H168.667C171.904 423.372 175.008 424.66 177.297 426.951C179.585 429.243 180.871 432.351 180.871 435.592V435.989L149.516 435.99L149.516 423.373Z" fill="#2F2E41"/>
<path d="M115.304 418.809L124.646 421.512L139.504 386.719L125.716 382.729L115.304 418.809Z" fill="#FFB6B6"/>
<path d="M113.802 415.066L132.2 420.389L132.201 420.389C135.31 421.289 137.935 423.389 139.498 426.226C141.062 429.064 141.435 432.408 140.537 435.521L140.427 435.903L110.304 427.187L113.802 415.066Z" fill="#2F2E41"/>
<path d="M140.055 263.473C140.055 263.473 136.596 273.136 142.052 286.319L146.263 340.617L147.509 417.839H165.237L175.965 339.116L182.409 267.735L140.055 263.473Z" fill="#2F2E41"/>
<path d="M130.083 263.473C130.083 263.473 126.624 273.136 132.081 286.319L136.291 340.617L115.328 414.163H133.056L165.994 339.116L172.438 267.735L130.083 263.473Z" fill="#2F2E41"/>
<path d="M182.09 138.935C192.849 138.935 201.571 130.202 201.571 119.429C201.571 108.656 192.849 99.9226 182.09 99.9226C171.331 99.9226 162.608 108.656 162.608 119.429C162.608 130.202 171.331 138.935 182.09 138.935Z" fill="#FFB6B6"/>
<path d="M184.695 166.878L180.748 148.511L160.645 137.082L156.568 142.797C156.568 142.797 127.804 150.365 131.283 183.437C134.761 216.509 133.175 232.393 133.175 232.393L125.243 268.926C125.243 268.926 127.685 269.346 183.724 279.149L186.104 199.729L184.695 166.878Z" fill="#EA544A"/>
<path opacity="0.1" d="M165.194 345.611L146.938 382.533V393.116L165.194 345.611Z" fill="black"/>
<path d="M161.084 125.599C162.942 130.58 169.97 131.27 172.45 126.568C172.642 126.203 172.799 125.82 172.919 125.425C173.598 123.167 173.171 120.679 174.425 118.52C174.73 117.98 175.168 117.526 175.698 117.203C179.867 114.741 183.97 122.554 187.847 120.368C190.225 119.028 189.716 115.135 191.832 113.41C194.624 111.134 198.657 114.525 202.237 114.137C206.22 113.707 208.105 108.654 207.239 104.738C206.183 99.9611 202.451 96.0843 198.071 93.9153C193.692 91.7464 188.716 91.0915 183.831 90.9699C178.282 90.8318 172.475 91.4216 167.782 94.3916C162.076 98.0035 158.861 104.727 158.149 111.449C157.716 115.538 159.568 121.531 161.084 125.599Z" fill="#2F2E41"/>
<path d="M256.548 259.49C256.577 259.49 256.606 259.49 256.634 259.488C271.312 258.719 285.146 252.382 295.323 241.764C305.501 231.147 311.257 217.046 311.422 202.331C311.587 187.615 306.147 173.39 296.21 162.546C286.273 151.703 272.585 145.057 257.928 143.958C257.747 143.944 257.564 143.968 257.393 144.027C257.221 144.087 257.063 144.181 256.93 144.305C256.796 144.426 256.69 144.574 256.616 144.739C256.543 144.903 256.505 145.081 256.503 145.262L255.239 258.153C255.236 258.504 255.372 258.842 255.618 259.092C255.863 259.343 256.198 259.486 256.548 259.49Z" fill="#FF8179"/>
<path d="M211.209 162.626C211.659 162.631 212.089 162.815 212.404 163.137L251.218 202.882C251.374 203.041 251.497 203.229 251.58 203.436C251.663 203.643 251.704 203.864 251.701 204.087L251.097 258.106C251.095 258.338 251.045 258.567 250.951 258.779C250.857 258.99 250.719 259.18 250.548 259.336C250.377 259.494 250.174 259.615 249.954 259.692C249.734 259.769 249.5 259.799 249.268 259.782C238.476 258.973 228.123 255.167 219.372 248.791C210.622 242.415 203.82 233.723 199.732 223.689C195.644 213.656 194.432 202.681 196.231 191.995C198.029 181.31 202.769 171.339 209.916 163.202C210.071 163.027 210.26 162.885 210.471 162.786C210.683 162.687 210.913 162.633 211.146 162.626C211.167 162.626 211.188 162.626 211.209 162.626Z" fill="#E6E6E6"/>
<path d="M250.678 143.497C251.111 143.502 251.526 143.672 251.839 143.972C252.007 144.132 252.14 144.325 252.23 144.539C252.32 144.753 252.364 144.984 252.361 145.216L251.815 193.955C251.811 194.29 251.708 194.617 251.519 194.894C251.329 195.171 251.062 195.386 250.751 195.511C250.44 195.636 250.099 195.666 249.771 195.596C249.443 195.527 249.143 195.362 248.908 195.122L215.038 160.44C214.882 160.28 214.759 160.091 214.676 159.884C214.594 159.677 214.552 159.455 214.555 159.232C214.557 159.008 214.604 158.788 214.692 158.582C214.78 158.377 214.907 158.191 215.066 158.035C215.087 158.015 215.108 157.996 215.129 157.977C224.98 149.295 237.468 144.194 250.573 143.499C250.608 143.497 250.643 143.497 250.678 143.497Z" fill="#EA544A"/>
<path d="M198.001 200.523C196.842 200.522 195.696 200.777 194.645 201.269C193.594 201.761 192.664 202.478 191.921 203.369L156.379 202.257L154.987 196.257L136.594 205.245L138.973 221.676L193.14 214.732C194.137 215.507 195.304 216.033 196.545 216.265C197.785 216.498 199.063 216.431 200.273 216.069C201.482 215.708 202.588 215.062 203.498 214.187C204.408 213.311 205.096 212.231 205.505 211.035C205.914 209.839 206.033 208.563 205.85 207.313C205.667 206.063 205.189 204.874 204.455 203.846C203.721 202.818 202.753 201.98 201.63 201.402C200.508 200.824 199.264 200.523 198.001 200.523H198.001Z" fill="#FFB6B6"/>
<path d="M133.597 212.012L132.609 163.063C132.574 161.35 132.879 159.648 133.506 158.053C134.133 156.459 135.069 155.005 136.26 153.776C137.452 152.546 138.875 151.565 140.447 150.889C142.02 150.214 143.71 149.857 145.421 149.84C147.132 149.822 148.83 150.145 150.416 150.788C152.001 151.432 153.444 152.384 154.66 153.589C155.876 154.795 156.841 156.229 157.5 157.81C158.159 159.392 158.498 161.088 158.498 162.801V198.574L133.597 212.012Z" fill="#EA544A"/>
<path d="M302.998 436.809H0.793187C0.582821 436.809 0.38107 436.725 0.232319 436.576C0.0835671 436.427 0 436.225 0 436.015C0 435.804 0.0835671 435.602 0.232319 435.453C0.38107 435.304 0.582821 435.22 0.793187 435.22H302.998C303.208 435.22 303.41 435.304 303.558 435.453C303.707 435.602 303.791 435.804 303.791 436.015C303.791 436.225 303.707 436.427 303.558 436.576C303.41 436.725 303.208 436.809 302.998 436.809Z" fill="#CBCBCB"/>
</g>
<defs>
<clipPath id="clip0">
<rect width="618" height="437" fill="white"/>
</clipPath>
</defs>
</svg>
