<svg width="621" height="387" viewBox="0 0 621 387" fill="none" xmlns="http://www.w3.org/2000/svg">
<g clip-path="url(#clip0)">
<path d="M58.5656 374.705C61.3135 378.408 64.7201 381.573 68.6148 384.043C69.4431 384.568 70.2934 385.063 71.1585 385.521H91.5158C91.2721 385.033 91.0352 384.538 90.8059 384.043C84.494 370.726 82.5147 355.766 85.1462 341.266C87.7778 326.766 94.8879 313.455 105.477 303.204C93.1724 307.004 81.7995 314.412 74.3604 324.918C70.7458 330.034 68.1752 335.813 66.7957 341.923C65.5663 329.703 67.5202 317.373 72.4673 306.132C62.4773 314.257 54.6978 325.384 51.7327 337.908C48.7677 350.44 50.9193 364.347 58.5656 374.705Z" fill="#F0F0F0"/>
<path d="M617.781 207.745H479.377C478.524 207.744 477.705 207.404 477.102 206.801C476.499 206.198 476.159 205.38 476.158 204.526V118.924C476.159 118.071 476.499 117.253 477.102 116.649C477.705 116.046 478.524 115.707 479.377 115.706H617.781C618.635 115.707 619.453 116.046 620.056 116.649C620.66 117.253 620.999 118.071 621 118.924V204.526C620.999 205.38 620.66 206.198 620.056 206.801C619.453 207.404 618.635 207.744 617.781 207.745Z" fill="#F8F8F8"/>
<path d="M617.781 207.745H479.377C478.524 207.744 477.705 207.404 477.102 206.801C476.499 206.198 476.159 205.38 476.158 204.526V118.924C476.159 118.071 476.499 117.253 477.102 116.649C477.705 116.046 478.524 115.707 479.377 115.706H617.781C618.635 115.707 619.453 116.046 620.056 116.649C620.66 117.253 620.999 118.071 621 118.924V204.526C620.999 205.38 620.66 206.198 620.056 206.801C619.453 207.404 618.635 207.744 617.781 207.745ZM479.377 116.993C478.865 116.994 478.374 117.197 478.012 117.559C477.65 117.921 477.446 118.412 477.446 118.924V204.526C477.446 205.038 477.65 205.529 478.012 205.891C478.374 206.253 478.865 206.457 479.377 206.457H617.781C618.293 206.457 618.784 206.253 619.146 205.891C619.508 205.529 619.712 205.038 619.713 204.526V118.924C619.712 118.412 619.508 117.921 619.146 117.559C618.784 117.197 618.293 116.994 617.781 116.993H479.377Z" fill="#EBEBEB"/>
<path d="M590.422 144.295H506.736C505.967 144.295 505.231 143.989 504.687 143.446C504.144 142.903 503.839 142.166 503.839 141.398C503.839 140.63 504.144 139.893 504.687 139.35C505.231 138.807 505.967 138.502 506.736 138.502H590.422C591.19 138.502 591.927 138.807 592.471 139.35C593.014 139.893 593.319 140.63 593.319 141.398C593.319 142.166 593.014 142.903 592.471 143.446C591.927 143.989 591.19 144.295 590.422 144.295Z" fill="#CCCCCC"/>
<path d="M590.422 164.247H506.736C505.967 164.247 505.231 163.942 504.687 163.399C504.144 162.856 503.839 162.119 503.839 161.351C503.839 160.583 504.144 159.846 504.687 159.303C505.231 158.76 505.967 158.454 506.736 158.454H590.422C591.19 158.454 591.927 158.76 592.471 159.303C593.014 159.846 593.319 160.583 593.319 161.351C593.319 162.119 593.014 162.856 592.471 163.399C591.927 163.942 591.19 164.247 590.422 164.247Z" fill="#CCCCCC"/>
<path d="M582.967 195.882C588.684 195.882 593.319 191.248 593.319 185.531C593.319 179.815 588.684 175.181 582.967 175.181C577.249 175.181 572.614 179.815 572.614 185.531C572.614 191.248 577.249 195.882 582.967 195.882Z" fill="#EA544A"/>
<path d="M583.251 180.655V179.669H583.543V180.655C583.956 180.673 584.362 180.773 584.737 180.947C585.009 181.075 585.244 181.271 585.418 181.515C585.58 181.741 585.666 182.012 585.665 182.29C585.671 182.493 585.603 182.692 585.474 182.848C585.418 182.92 585.346 182.977 585.265 183.016C585.183 183.056 585.094 183.076 585.003 183.075C584.936 183.077 584.868 183.064 584.806 183.038C584.743 183.013 584.687 182.975 584.64 182.926C584.591 182.878 584.552 182.82 584.527 182.757C584.501 182.693 584.489 182.625 584.49 182.556C584.491 182.46 584.511 182.365 584.549 182.277L584.666 182.031C584.707 181.928 584.727 181.817 584.724 181.706C584.727 181.535 584.673 181.367 584.568 181.23C584.455 181.086 584.301 180.979 584.127 180.921C583.938 180.859 583.742 180.82 583.543 180.805V184.353L583.608 184.392C584.218 184.715 584.772 185.133 585.25 185.631C585.461 185.882 585.629 186.166 585.746 186.472C585.863 186.768 585.923 187.084 585.925 187.403C585.93 187.815 585.822 188.221 585.613 188.577C585.409 188.924 585.109 189.206 584.75 189.388C584.371 189.574 583.963 189.692 583.543 189.738V190.796H583.251V189.758C582.828 189.754 582.409 189.668 582.018 189.505C581.629 189.36 581.285 189.113 581.022 188.791C580.791 188.502 580.666 188.142 580.669 187.772C580.66 187.513 580.74 187.258 580.896 187.049C580.957 186.959 581.039 186.885 581.135 186.834C581.231 186.782 581.338 186.755 581.447 186.754C581.513 186.752 581.578 186.763 581.638 186.787C581.699 186.811 581.754 186.847 581.801 186.893C581.847 186.939 581.883 186.994 581.907 187.055C581.931 187.116 581.943 187.181 581.94 187.246C581.918 187.446 581.834 187.633 581.7 187.783C581.63 187.876 581.571 187.976 581.522 188.081C581.489 188.163 581.472 188.251 581.473 188.34C581.474 188.576 581.556 188.806 581.704 188.99C581.865 189.197 582.079 189.357 582.323 189.453C582.602 189.562 582.9 189.615 583.199 189.609H583.251V185.372L582.881 185.158C582.531 184.955 582.264 184.786 582.08 184.652C581.9 184.522 581.734 184.374 581.583 184.211C581.211 183.814 581.004 183.289 581.006 182.744C581.004 182.405 581.089 182.072 581.253 181.775C581.413 181.478 581.648 181.229 581.934 181.051C582.333 180.811 582.786 180.675 583.251 180.655ZM583.251 180.798C583 180.806 582.752 180.861 582.521 180.96C582.29 181.074 582.101 181.258 581.978 181.485C581.839 181.731 581.768 182.011 581.772 182.294C581.769 182.639 581.875 182.977 582.075 183.259C582.181 183.412 582.308 183.549 582.453 183.667C582.687 183.842 582.932 184.002 583.187 184.146L583.251 184.185V180.798ZM583.543 189.596C583.71 189.582 583.875 189.547 584.034 189.492C584.163 189.442 584.283 189.372 584.389 189.284C584.59 189.114 584.745 188.896 584.842 188.652C584.954 188.381 585.012 188.091 585.01 187.798C584.984 187.328 584.835 186.874 584.577 186.479C584.32 186.085 583.963 185.766 583.543 185.554V189.596Z" fill="#F8F8F8"/>
<path d="M523.499 150.446H385.095C384.241 150.445 383.423 150.106 382.82 149.503C382.216 148.899 381.877 148.081 381.876 147.228V61.6255C381.877 60.7723 382.216 59.9543 382.82 59.351C383.423 58.7477 384.241 58.4083 385.095 58.4073H523.499C524.353 58.4083 525.171 58.7477 525.774 59.351C526.378 59.9543 526.717 60.7723 526.718 61.6255V147.228C526.717 148.081 526.378 148.899 525.774 149.503C525.171 150.106 524.353 150.445 523.499 150.446Z" fill="#F8F8F8"/>
<path d="M523.499 150.446H385.095C384.241 150.445 383.423 150.106 382.82 149.503C382.216 148.899 381.877 148.081 381.876 147.228V61.6255C381.877 60.7723 382.216 59.9543 382.82 59.351C383.423 58.7477 384.241 58.4083 385.095 58.4073H523.499C524.353 58.4083 525.171 58.7477 525.774 59.351C526.378 59.9543 526.717 60.7723 526.718 61.6255V147.228C526.717 148.081 526.378 148.899 525.774 149.503C525.171 150.106 524.353 150.445 523.499 150.446ZM385.095 59.6946C384.583 59.6952 384.092 59.8988 383.73 60.2608C383.368 60.6228 383.164 61.1136 383.163 61.6255V147.228C383.164 147.74 383.368 148.231 383.73 148.593C384.092 148.955 384.583 149.158 385.095 149.159H523.499C524.011 149.158 524.502 148.955 524.864 148.593C525.226 148.231 525.43 147.74 525.43 147.228V61.6255C525.43 61.1136 525.226 60.6228 524.864 60.2608C524.502 59.8988 524.011 59.6952 523.499 59.6946H385.095Z" fill="#EBEBEB"/>
<path d="M496.141 86.9962H412.454C411.686 86.9962 410.949 86.691 410.406 86.1479C409.863 85.6047 409.558 84.868 409.558 84.0998C409.558 83.3317 409.863 82.595 410.406 82.0518C410.949 81.5086 411.686 81.2035 412.454 81.2035H496.141C496.909 81.2035 497.646 81.5086 498.189 82.0518C498.733 82.595 499.038 83.3317 499.038 84.0998C499.038 84.868 498.733 85.6047 498.189 86.1479C497.646 86.691 496.909 86.9962 496.141 86.9962Z" fill="#CCCCCC"/>
<path d="M496.141 106.949H412.454C411.686 106.949 410.949 106.644 410.406 106.1C409.863 105.557 409.558 104.821 409.558 104.052C409.558 103.284 409.863 102.548 410.406 102.004C410.949 101.461 411.686 101.156 412.454 101.156H496.141C496.909 101.156 497.646 101.461 498.189 102.004C498.733 102.548 499.038 103.284 499.038 104.052C499.038 104.821 498.733 105.557 498.189 106.1C497.646 106.644 496.909 106.949 496.141 106.949Z" fill="#CCCCCC"/>
<path d="M488.685 138.584C494.402 138.584 499.037 133.95 499.037 128.233C499.037 122.517 494.402 117.882 488.685 117.882C482.967 117.882 478.332 122.517 478.332 128.233C478.332 133.95 482.967 138.584 488.685 138.584Z" fill="#EA544A"/>
<path d="M488.969 123.357V122.371H489.261V123.357C489.674 123.375 490.08 123.474 490.455 123.649C490.727 123.777 490.961 123.972 491.136 124.217C491.298 124.443 491.384 124.714 491.383 124.992C491.389 125.195 491.321 125.393 491.191 125.55C491.136 125.621 491.064 125.679 490.982 125.718C490.901 125.758 490.811 125.778 490.721 125.777C490.653 125.778 490.586 125.766 490.524 125.74C490.461 125.714 490.405 125.676 490.358 125.628C490.309 125.58 490.27 125.522 490.245 125.458C490.219 125.395 490.207 125.327 490.208 125.258C490.208 125.162 490.228 125.067 490.267 124.979L490.384 124.733C490.425 124.629 490.445 124.519 490.442 124.408C490.445 124.236 490.39 124.068 490.286 123.931C490.172 123.788 490.019 123.681 489.845 123.623C489.656 123.561 489.46 123.522 489.261 123.506V127.055L489.326 127.094C489.936 127.417 490.49 127.835 490.968 128.333C491.179 128.583 491.347 128.867 491.464 129.173C491.58 129.47 491.641 129.786 491.642 130.104C491.648 130.517 491.54 130.923 491.331 131.279C491.127 131.626 490.827 131.907 490.468 132.09C490.089 132.275 489.681 132.394 489.261 132.44V133.497H488.969V132.459C488.545 132.456 488.127 132.37 487.736 132.206C487.346 132.061 487.002 131.815 486.74 131.493C486.509 131.204 486.384 130.844 486.386 130.474C486.378 130.214 486.458 129.959 486.613 129.751C486.675 129.661 486.757 129.587 486.853 129.535C486.949 129.484 487.056 129.457 487.165 129.456C487.23 129.453 487.295 129.464 487.356 129.488C487.417 129.512 487.472 129.548 487.518 129.595C487.565 129.641 487.601 129.696 487.625 129.757C487.649 129.817 487.66 129.882 487.658 129.948C487.636 130.147 487.552 130.335 487.418 130.485C487.348 130.577 487.288 130.677 487.24 130.783C487.206 130.865 487.19 130.953 487.191 131.042C487.192 131.278 487.273 131.507 487.421 131.692C487.583 131.899 487.797 132.058 488.041 132.155C488.32 132.263 488.618 132.316 488.917 132.31H488.969V128.074L488.599 127.86C488.249 127.656 487.981 127.488 487.798 127.353C487.618 127.223 487.452 127.075 487.301 126.912C486.928 126.515 486.722 125.991 486.724 125.446C486.722 125.107 486.807 124.773 486.97 124.476C487.131 124.18 487.365 123.931 487.652 123.753C488.05 123.512 488.504 123.376 488.969 123.357ZM488.969 123.5C488.718 123.508 488.47 123.563 488.239 123.662C488.008 123.776 487.818 123.959 487.696 124.186C487.557 124.433 487.486 124.712 487.489 124.996C487.487 125.341 487.593 125.679 487.793 125.96C487.899 126.114 488.026 126.251 488.171 126.368C488.405 126.543 488.65 126.703 488.904 126.848L488.969 126.886V123.5ZM489.261 132.297C489.428 132.283 489.593 132.248 489.752 132.193C489.881 132.144 490.001 132.074 490.107 131.986C490.307 131.815 490.463 131.598 490.559 131.353C490.672 131.083 490.729 130.793 490.727 130.5C490.702 130.03 490.553 129.575 490.295 129.181C490.038 128.787 489.681 128.468 489.261 128.255V132.297Z" fill="#F8F8F8"/>
<path d="M236.588 137.673C235.383 137.586 234.172 137.764 233.043 138.195C231.914 138.626 230.892 139.3 230.051 140.168C229.211 141.037 228.57 142.079 228.176 143.221C227.781 144.364 227.642 145.579 227.768 146.781L201.16 159.253L214.184 167.226L237.454 154.16C239.46 153.815 241.269 152.745 242.54 151.155C243.81 149.565 244.452 147.564 244.346 145.532C244.239 143.5 243.39 141.577 241.961 140.129C240.531 138.68 238.619 137.807 236.588 137.673Z" fill="#FFB6B6"/>
<path d="M126.485 377.63L135.674 377.629L140.046 342.191L126.483 342.192L126.485 377.63Z" fill="#FFB6B6"/>
<path d="M124.141 374.63L142.237 374.629H142.238C145.297 374.629 148.23 375.844 150.393 378.007C152.556 380.169 153.771 383.102 153.771 386.16V386.534L124.141 386.535L124.141 374.63Z" fill="#2F2E41"/>
<path d="M173.375 377.63L182.564 377.629L186.936 342.191L173.373 342.192L173.375 377.63Z" fill="#FFB6B6"/>
<path d="M171.03 374.63L189.127 374.629H189.128C192.186 374.629 195.12 375.844 197.282 378.007C199.445 380.169 200.66 383.102 200.66 386.16V386.534L171.031 386.535L171.03 374.63Z" fill="#2F2E41"/>
<path d="M179.513 193.823L184.176 203.862L192.585 293.646L186.049 370.816H170.762L152.723 249.178L144.251 368.014L123.624 367.181L119.664 206.066L179.513 193.823Z" fill="#2F2E41"/>
<path d="M105.188 110.97L124.525 103.104L151.817 104.635L176.081 113.475L184.177 203.863C163.068 215.387 141.685 218.533 119.93 210.292L99.7402 151.421L105.188 110.97Z" fill="white"/>
<path d="M168.532 115.865L177.113 113.475C177.113 113.475 183.603 109.256 185.739 121.798C187.874 134.341 198.862 153.85 198.862 153.85L217.672 143.827L226.38 162.842L196.675 180.833L165.394 149.319L168.532 115.865Z" fill="white"/>
<path d="M121.464 86.358C120.422 83.9939 119.856 81.4477 119.798 78.8649C119.74 76.282 120.192 73.7131 121.127 71.3047C122.062 68.8963 123.462 66.6957 125.248 64.8284C127.034 62.9612 129.17 61.4639 131.534 60.422C133.899 59.3801 136.446 58.8141 139.029 58.7563C141.612 58.6984 144.182 59.1499 146.59 60.0848C148.999 61.0198 151.2 62.42 153.068 64.2054C154.935 65.9909 156.433 68.1266 157.475 70.4907L157.587 70.751C159.658 75.5414 159.74 80.9579 157.816 85.809C156.864 88.211 155.447 90.4019 153.648 92.2566C151.848 94.1113 149.701 95.5934 147.328 96.6184C142.537 98.6885 137.12 98.7707 132.268 96.8471C127.416 94.9235 123.527 91.1516 121.456 86.3612L121.464 86.358Z" fill="#FFB6B6"/>
<path d="M148.178 68.3527C152.269 69.0949 158.601 71.6703 162.115 68.649C160.379 66.6216 158.196 65.0252 155.738 63.9858C155.254 63.8252 154.806 63.5719 154.418 63.24C153.22 62.0295 154.146 59.9437 153.598 58.3071C153.331 57.7091 152.93 57.181 152.425 56.7646C151.92 56.3481 151.325 56.0546 150.687 55.9073C149.467 55.5425 148.189 55.4833 146.991 55.0408C144.156 53.9754 142.14 50.9266 139.234 50.0981C136.702 49.3658 134.154 50.5039 131.969 51.832C129.784 53.1602 127.622 54.736 125.065 54.988C123.155 55.1623 121.945 58.3041 120.028 58.3962C116.008 58.5916 116.232 55.9431 115.934 60.1646C115.763 62.6838 112.163 67.6953 112.221 70.2364C112.281 71.9014 111.986 73.5505 112.034 75.2207C112.142 78.4017 113.418 81.4315 115.618 83.7316C117.448 85.6129 119.828 86.8819 121.368 89.0263C122.169 90.1648 122.725 91.4936 123.657 92.5237C124.59 93.5538 126.169 94.1738 127.21 93.4384C128.25 92.7029 128.27 91.1114 128.786 89.9003C129.103 89.1577 129.644 88.5328 130.333 88.1131C131.023 87.6934 131.827 87.4998 132.632 87.5595C133.468 87.6688 134.257 88.0092 134.911 88.5425C135.564 89.0757 136.055 89.7806 136.33 90.5779C135.842 87.9014 134.558 85.3937 134.07 82.7152C133.581 80.0367 134.218 76.837 136.524 75.7912C137.515 75.3304 138.853 75.2066 139.251 74.1448C139.495 73.5052 139.272 72.7495 139.366 72.0578C139.873 68.668 145.51 67.8293 148.178 68.3527Z" fill="#2F2E41"/>
<path d="M122.248 209.247C122.072 208.051 121.636 206.909 120.97 205.9C120.304 204.891 119.425 204.04 118.395 203.408C117.365 202.775 116.208 202.376 115.007 202.239C113.806 202.101 112.59 202.229 111.443 202.612L93.4974 179.346L88.5361 193.786L106.338 213.666C107.111 215.549 108.547 217.084 110.375 217.979C112.203 218.874 114.295 219.067 116.257 218.522C118.218 217.978 119.911 216.732 121.015 215.023C122.119 213.314 122.558 211.258 122.248 209.247V209.247Z" fill="#FFB6B6"/>
<path d="M111.386 115.358L105.188 110.97C105.188 110.97 91.0073 110.158 88.9444 121.799L62.9424 164.565L95.1816 209.035L110.812 192.584L91.0898 169.54L107.649 139.142L111.386 115.358Z" fill="white"/>
<path d="M262.402 122.135H262.077V113.228C262.077 112.551 261.944 111.881 261.685 111.255C261.425 110.63 261.046 110.062 260.567 109.583C260.088 109.104 259.52 108.724 258.894 108.465C258.269 108.206 257.598 108.073 256.921 108.073H238.048C237.37 108.073 236.7 108.206 236.074 108.465C235.449 108.724 234.881 109.104 234.402 109.583C233.923 110.062 233.543 110.63 233.284 111.255C233.025 111.881 232.892 112.551 232.892 113.228V162.091C232.892 162.768 233.025 163.439 233.284 164.064C233.543 164.69 233.923 165.258 234.402 165.737C234.881 166.215 235.449 166.595 236.074 166.854C236.7 167.113 237.37 167.246 238.048 167.246H256.921C257.598 167.246 258.269 167.113 258.894 166.854C259.52 166.595 260.088 166.215 260.567 165.737C261.046 165.258 261.425 164.69 261.685 164.064C261.944 163.439 262.077 162.768 262.077 162.091V128.475H262.402V122.135Z" fill="#A2A2A2"/>
<path d="M257.129 109.414H254.666C254.779 109.692 254.822 109.993 254.792 110.292C254.761 110.59 254.658 110.876 254.49 111.125C254.323 111.374 254.097 111.578 253.832 111.719C253.567 111.86 253.272 111.934 252.972 111.934H242.16C241.86 111.934 241.564 111.86 241.299 111.719C241.035 111.578 240.809 111.374 240.641 111.125C240.474 110.876 240.371 110.59 240.34 110.292C240.309 109.993 240.353 109.692 240.466 109.414H238.165C237.144 109.414 236.164 109.82 235.442 110.542C234.72 111.264 234.314 112.243 234.314 113.264V162.056C234.314 163.077 234.72 164.056 235.442 164.778C236.164 165.5 237.144 165.905 238.165 165.905H257.129C258.15 165.905 259.13 165.5 259.852 164.778C260.574 164.056 260.98 163.077 260.98 162.056V113.264C260.98 112.243 260.574 111.264 259.852 110.542C259.13 109.82 258.15 109.414 257.129 109.414Z" fill="white"/>
<path d="M427.369 92.0389H288.965C288.111 92.0379 287.293 91.6985 286.69 91.0952C286.087 90.4919 285.747 89.6739 285.746 88.8207V3.21815C285.747 2.36494 286.087 1.54696 286.69 0.94365C287.293 0.340343 288.111 0.000976435 288.965 0H427.369C428.223 0.000976439 429.041 0.340343 429.644 0.94365C430.248 1.54696 430.587 2.36494 430.588 3.21815V88.8207C430.587 89.6739 430.248 90.4919 429.644 91.0952C429.041 91.6985 428.223 92.0379 427.369 92.0389Z" fill="#F8F8F8"/>
<path d="M427.369 92.0389H288.965C288.111 92.0379 287.293 91.6985 286.69 91.0952C286.087 90.4919 285.747 89.6739 285.746 88.8207V3.21815C285.747 2.36494 286.087 1.54696 286.69 0.94365C287.293 0.340343 288.111 0.000976435 288.965 0H427.369C428.223 0.000976439 429.041 0.340343 429.644 0.94365C430.248 1.54696 430.587 2.36494 430.588 3.21815V88.8207C430.587 89.6739 430.248 90.4919 429.644 91.0952C429.041 91.6985 428.223 92.0379 427.369 92.0389ZM288.965 1.28726C288.453 1.28782 287.962 1.49143 287.6 1.85342C287.238 2.21541 287.034 2.70622 287.034 3.21815V88.8207C287.034 89.3327 287.238 89.8235 287.6 90.1855C287.962 90.5474 288.453 90.751 288.965 90.7516H427.369C427.881 90.751 428.372 90.5474 428.734 90.1855C429.096 89.8235 429.3 89.3327 429.301 88.8207V3.21815C429.3 2.70622 429.096 2.21541 428.734 1.85342C428.372 1.49143 427.881 1.28782 427.369 1.28726H288.965Z" fill="#EBEBEB"/>
<path d="M400.01 28.5888H316.324C315.555 28.5888 314.818 28.2837 314.275 27.7405C313.732 27.1973 313.427 26.4606 313.427 25.6925C313.427 24.9243 313.732 24.1876 314.275 23.6445C314.818 23.1013 315.555 22.7961 316.324 22.7961H400.01C400.778 22.7961 401.515 23.1013 402.058 23.6445C402.602 24.1876 402.907 24.9243 402.907 25.6925C402.907 26.4606 402.602 27.1973 402.058 27.7405C401.515 28.2837 400.778 28.5888 400.01 28.5888Z" fill="#CCCCCC"/>
<path d="M400.01 48.5413H316.324C315.555 48.5413 314.818 48.2362 314.275 47.693C313.732 47.1498 313.427 46.4131 313.427 45.645C313.427 44.8768 313.732 44.1401 314.275 43.597C314.818 43.0538 315.555 42.7487 316.324 42.7487H400.01C400.778 42.7487 401.515 43.0538 402.058 43.597C402.602 44.1401 402.907 44.8768 402.907 45.645C402.907 46.4131 402.602 47.1498 402.058 47.693C401.515 48.2362 400.778 48.5413 400.01 48.5413Z" fill="#CCCCCC"/>
<path d="M392.555 80.1764C398.272 80.1764 402.907 75.5422 402.907 69.8257C402.907 64.1092 398.272 59.475 392.555 59.475C386.837 59.475 382.202 64.1092 382.202 69.8257C382.202 75.5422 386.837 80.1764 392.555 80.1764Z" fill="#EA544A"/>
<path d="M392.839 64.9496V63.9635H393.131V64.9496C393.544 64.9676 393.95 65.0668 394.325 65.2416C394.597 65.3694 394.832 65.5649 395.006 65.8094C395.168 66.0356 395.254 66.3067 395.253 66.5846C395.259 66.7876 395.191 66.986 395.061 67.1425C395.006 67.2138 394.934 67.2714 394.853 67.3107C394.771 67.3501 394.682 67.3702 394.591 67.3696C394.523 67.3709 394.456 67.3583 394.394 67.3327C394.331 67.307 394.275 67.2688 394.228 67.2204C394.179 67.1722 394.14 67.1146 394.115 67.051C394.089 66.9874 394.077 66.9192 394.078 66.8506C394.079 66.7546 394.098 66.6596 394.137 66.5716L394.254 66.3251C394.295 66.222 394.315 66.1117 394.312 66.0007C394.315 65.8288 394.26 65.6608 394.156 65.5239C394.042 65.3804 393.889 65.2733 393.715 65.2156C393.526 65.1536 393.33 65.1144 393.131 65.0988V68.6476L393.196 68.6866C393.806 69.0094 394.36 69.4277 394.838 69.9257C395.049 70.1759 395.217 70.46 395.334 70.766C395.451 71.0626 395.511 71.3782 395.512 71.6969C395.518 72.1094 395.41 72.5155 395.201 72.8712C394.997 73.2184 394.697 73.4998 394.338 73.6821C393.959 73.8679 393.551 73.9865 393.131 74.0325V75.09H392.839V74.052C392.416 74.0486 391.997 73.9626 391.606 73.799C391.216 73.654 390.873 73.4077 390.61 73.0853C390.379 72.7963 390.254 72.4367 390.256 72.0667C390.248 71.8068 390.328 71.5518 390.484 71.3432C390.545 71.2533 390.627 71.1795 390.723 71.1281C390.819 71.0767 390.926 71.0493 391.035 71.0481C391.1 71.0458 391.165 71.057 391.226 71.0809C391.287 71.1048 391.342 71.141 391.389 71.1871C391.435 71.2332 391.471 71.2884 391.495 71.3491C391.519 71.4098 391.53 71.4749 391.528 71.5402C391.506 71.7399 391.422 71.9277 391.288 72.0774C391.218 72.17 391.158 72.2699 391.11 72.3752C391.076 72.4574 391.06 72.5454 391.061 72.6341C391.062 72.8707 391.143 73.0999 391.291 73.2845C391.453 73.4913 391.667 73.6511 391.911 73.7473C392.19 73.856 392.488 73.9089 392.787 73.9028H392.839V69.6662L392.469 69.4521C392.119 69.2489 391.852 69.0802 391.668 68.9461C391.488 68.8158 391.322 68.6681 391.171 68.5049C390.799 68.1079 390.592 67.5832 390.594 67.0387C390.592 66.6997 390.677 66.3659 390.84 66.0689C391.001 65.7725 391.235 65.5231 391.522 65.3454C391.921 65.105 392.374 64.9688 392.839 64.9496ZM392.839 65.0924C392.588 65.1002 392.34 65.1551 392.109 65.2543C391.878 65.3687 391.688 65.552 391.566 65.7788C391.427 66.0256 391.356 66.3048 391.359 66.5881C391.357 66.9336 391.463 67.2712 391.663 67.5529C391.769 67.7063 391.896 67.8437 392.041 67.961C392.275 68.1358 392.52 68.2958 392.774 68.4401L392.839 68.479V65.0924ZM393.131 73.8898C393.298 73.8758 393.463 73.8409 393.622 73.786C393.751 73.7362 393.871 73.6661 393.977 73.5784C394.178 73.4078 394.333 73.1906 394.43 72.9459C394.542 72.6757 394.599 72.3855 394.597 72.0927C394.572 71.6227 394.423 71.1678 394.165 70.7737C393.908 70.3797 393.551 70.0604 393.131 69.8479V73.8898Z" fill="#F8F8F8"/>
<path d="M282.475 387H0.739464C0.543346 387 0.35526 386.922 0.216584 386.783C0.0779071 386.645 0 386.457 0 386.261C0 386.064 0.0779071 385.876 0.216584 385.738C0.35526 385.599 0.543346 385.521 0.739464 385.521H282.475C282.672 385.521 282.86 385.599 282.998 385.738C283.137 385.876 283.215 386.064 283.215 386.261C283.215 386.457 283.137 386.645 282.998 386.783C282.86 386.922 282.672 387 282.475 387Z" fill="#CACACA"/>
</g>
<defs>
<clipPath id="clip0">
<rect width="621" height="387" fill="white"/>
</clipPath>
</defs>
</svg>
