<svg width="722" height="812" viewBox="0 0 722 812" fill="none" xmlns="http://www.w3.org/2000/svg">
<g clip-path="url(#clip0)">
<path d="M611.139 811.494C672.366 811.494 722 806.58 722 800.518C722 794.456 672.366 789.542 611.139 789.542C549.912 789.542 500.278 794.456 500.278 800.518C500.278 806.58 549.912 811.494 611.139 811.494Z" fill="#E6E6E6"/>
<path d="M266.362 229.13H4.84294C3.55898 229.128 2.32804 228.617 1.42014 227.709C0.512244 226.801 0.00150766 225.571 0 224.287V159.415C0.00150765 158.131 0.512244 156.9 1.42014 155.992C2.32804 155.084 3.55898 154.574 4.84294 154.572H266.362C267.646 154.574 268.877 155.084 269.785 155.992C270.692 156.9 271.203 158.131 271.205 159.415V224.287C271.203 225.571 270.692 226.801 269.785 227.709C268.877 228.617 267.646 229.128 266.362 229.13ZM4.84294 156.509C4.07254 156.51 3.33392 156.816 2.78917 157.361C2.24441 157.906 1.93801 158.645 1.93717 159.415V224.287C1.93801 225.057 2.24441 225.796 2.78917 226.34C3.33392 226.885 4.07254 227.192 4.84294 227.192H266.362C267.132 227.192 267.871 226.885 268.415 226.34C268.96 225.796 269.267 225.057 269.268 224.287V159.415C269.267 158.645 268.96 157.906 268.415 157.361C267.871 156.816 267.132 156.51 266.362 156.509H4.84294Z" fill="white"/>
<path d="M45.4775 209.089C56.3728 209.089 65.2051 200.257 65.2051 189.362C65.2051 178.466 56.3728 169.634 45.4775 169.634C34.5823 169.634 25.75 178.466 25.75 189.362C25.75 200.257 34.5823 209.089 45.4775 209.089Z" fill="white"/>
<path d="M91.0389 176.21C90.1669 176.21 89.3306 176.556 88.714 177.173C88.0974 177.79 87.751 178.626 87.751 179.498C87.751 180.37 88.0974 181.206 88.714 181.823C89.3306 182.439 90.1669 182.786 91.0389 182.786H246.041C246.913 182.786 247.749 182.439 248.366 181.823C248.983 181.206 249.329 180.37 249.329 179.498C249.329 178.626 248.983 177.79 248.366 177.173C247.749 176.556 246.913 176.21 246.041 176.21H91.0389Z" fill="#E6E6E6"/>
<path d="M91.0389 195.938C90.1669 195.938 89.3306 196.284 88.714 196.901C88.0974 197.517 87.751 198.353 87.751 199.225C87.751 200.097 88.0974 200.934 88.714 201.55C89.3306 202.167 90.1669 202.513 91.0389 202.513H157.737C158.609 202.513 159.445 202.167 160.062 201.55C160.678 200.934 161.025 200.097 161.025 199.225C161.025 198.353 160.678 197.517 160.062 196.901C159.445 196.284 158.609 195.938 157.737 195.938H91.0389Z" fill="#E6E6E6"/>
<path d="M122.092 470.246H5.8615C4.57754 470.244 3.3466 469.734 2.4387 468.826C1.5308 467.918 1.02006 466.687 1.01855 465.403V344.353C1.02006 343.069 1.5308 341.838 2.4387 340.93C3.3466 340.022 4.57754 339.512 5.8615 339.51H122.092C123.376 339.512 124.607 340.022 125.515 340.93C126.423 341.838 126.934 343.069 126.935 344.353V465.403C126.934 466.687 126.423 467.918 125.515 468.826C124.607 469.734 123.376 470.244 122.092 470.246ZM5.8615 341.447C5.0911 341.448 4.35251 341.755 3.80776 342.299C3.263 342.844 2.95657 343.583 2.95573 344.353V465.403C2.95657 466.173 3.263 466.912 3.80776 467.457C4.35251 468.001 5.0911 468.308 5.8615 468.309H122.092C122.863 468.308 123.601 468.001 124.146 467.457C124.691 466.912 124.997 466.173 124.998 465.403V344.353C124.997 343.583 124.691 342.844 124.146 342.299C123.601 341.755 122.863 341.448 122.092 341.447H5.8615Z" fill="white"/>
<path d="M30.6278 364.473C29.7557 364.473 28.9195 364.819 28.3029 365.436C27.6862 366.053 27.3398 366.889 27.3398 367.761C27.3398 368.633 27.6862 369.469 28.3029 370.086C28.9195 370.702 29.7557 371.049 30.6278 371.049H97.3256C97.7579 371.05 98.1861 370.965 98.5857 370.8C98.9853 370.635 99.3485 370.393 99.6544 370.088C99.9604 369.782 100.203 369.42 100.369 369.02C100.534 368.621 100.62 368.193 100.62 367.761C100.62 367.329 100.534 366.901 100.369 366.501C100.203 366.102 99.9604 365.739 99.6544 365.434C99.3485 365.128 98.9853 364.886 98.5857 364.721C98.1861 364.557 97.7579 364.472 97.3256 364.473H30.6278Z" fill="#E6E6E6"/>
<path d="M30.6278 383.845C29.7558 383.845 28.9195 384.191 28.3029 384.808C27.6863 385.424 27.3398 386.261 27.3398 387.133C27.3398 388.005 27.6863 388.841 28.3029 389.458C28.9195 390.074 29.7558 390.421 30.6278 390.421H97.3257C98.1977 390.421 99.034 390.074 99.6506 389.458C100.267 388.841 100.614 388.005 100.614 387.133C100.614 386.261 100.267 385.424 99.6506 384.808C99.034 384.191 98.1977 383.845 97.3257 383.845H30.6278Z" fill="#E6E6E6"/>
<path d="M63.9772 445.283C59.8839 445.283 55.8826 444.07 52.4792 441.795C49.0757 439.521 46.4231 436.289 44.8566 432.507C43.2902 428.726 42.8804 424.564 43.6789 420.55C44.4775 416.535 46.4486 412.847 49.3429 409.953C52.2373 407.059 55.925 405.088 59.9396 404.289C63.9542 403.49 68.1155 403.9 71.8972 405.467C75.6789 407.033 78.9112 409.686 81.1853 413.089C83.4594 416.493 84.6732 420.494 84.6732 424.587C84.667 430.074 82.4845 435.335 78.6046 439.215C74.7247 443.095 69.4642 445.277 63.9772 445.283Z" fill="white"/>
<path d="M343.232 58.3765H459.462C460.746 58.378 461.977 58.8887 462.885 59.7966C463.793 60.7045 464.304 61.9354 464.305 63.2194V184.269C464.304 185.553 463.793 186.784 462.885 187.692C461.977 188.6 460.746 189.11 459.462 189.112H343.232C341.948 189.11 340.717 188.6 339.809 187.692C338.901 186.784 338.39 185.553 338.389 184.269V63.2194C338.39 61.9354 338.901 60.7045 339.809 59.7966C340.717 58.8887 341.948 58.378 343.232 58.3765ZM459.462 187.175C460.233 187.174 460.971 186.868 461.516 186.323C462.061 185.778 462.367 185.039 462.368 184.269V63.2194C462.367 62.449 462.061 61.7104 461.516 61.1657C460.971 60.6209 460.233 60.3145 459.462 60.3136H343.232C342.461 60.3145 341.723 60.6209 341.178 61.1657C340.633 61.7104 340.327 62.449 340.326 63.2194V184.269C340.327 185.039 340.633 185.778 341.178 186.323C341.723 186.868 342.461 187.174 343.232 187.175H459.462Z" fill="white"/>
<path d="M434.696 164.149C435.568 164.149 436.404 163.803 437.021 163.186C437.637 162.57 437.984 161.733 437.984 160.861C437.984 159.989 437.637 159.153 437.021 158.536C436.404 157.92 435.568 157.573 434.696 157.573H367.998C367.126 157.573 366.29 157.92 365.673 158.536C365.056 159.153 364.71 159.989 364.71 160.861C364.71 161.733 365.056 162.57 365.673 163.186C366.29 163.803 367.126 164.149 367.998 164.149H434.696Z" fill="#E6E6E6"/>
<path d="M434.696 144.778C435.568 144.778 436.404 144.431 437.021 143.815C437.637 143.198 437.984 142.362 437.984 141.49C437.984 140.618 437.637 139.782 437.021 139.165C436.404 138.548 435.568 138.202 434.696 138.202H367.998C367.126 138.202 366.29 138.548 365.673 139.165C365.056 139.782 364.71 140.618 364.71 141.49C364.71 142.362 365.056 143.198 365.673 143.815C366.29 144.431 367.126 144.778 367.998 144.778H434.696Z" fill="#E6E6E6"/>
<path d="M401.346 83.3391C405.44 83.3391 409.441 84.5529 412.844 86.827C416.248 89.1011 418.901 92.3334 420.467 96.1151C422.033 99.8968 422.443 104.058 421.645 108.073C420.846 112.087 418.875 115.775 415.981 118.669C413.086 121.564 409.399 123.535 405.384 124.333C401.369 125.132 397.208 124.722 393.426 123.156C389.645 121.589 386.412 118.937 384.138 115.533C381.864 112.13 380.65 108.128 380.65 104.035C380.657 98.5481 382.839 93.2876 386.719 89.4077C390.599 85.5278 395.859 83.3453 401.346 83.3391Z" fill="white"/>
<path d="M326.201 376.418H217.166L242.826 331.974C243.285 331.178 243.947 330.516 244.743 330.056C245.54 329.596 246.444 329.354 247.363 329.354C248.283 329.354 249.187 329.596 249.983 330.056C250.78 330.516 251.441 331.178 251.901 331.974L262.863 350.96L281.501 318.678C282.077 317.68 282.905 316.852 283.902 316.276C284.899 315.701 286.031 315.397 287.182 315.397C288.334 315.397 289.465 315.701 290.463 316.276C291.46 316.852 292.288 317.68 292.864 318.678L326.201 376.418Z" fill="white"/>
<path d="M326.304 376.407H210.073C208.789 376.405 207.558 375.894 206.651 374.987C205.743 374.079 205.232 372.848 205.23 371.564V306.692C205.232 305.408 205.743 304.177 206.651 303.269C207.558 302.361 208.789 301.851 210.073 301.849H326.304C327.588 301.851 328.819 302.361 329.727 303.269C330.635 304.177 331.146 305.408 331.147 306.692V371.564C331.146 372.848 330.635 374.079 329.727 374.987C328.819 375.894 327.588 376.405 326.304 376.407ZM210.073 303.786C209.303 303.787 208.564 304.094 208.02 304.638C207.475 305.183 207.168 305.922 207.168 306.692V371.564C207.168 372.334 207.475 373.073 208.02 373.617C208.564 374.162 209.303 374.469 210.073 374.469H326.304C327.075 374.469 327.813 374.162 328.358 373.617C328.903 373.073 329.209 372.334 329.21 371.564V306.692C329.209 305.922 328.903 305.183 328.358 304.638C327.813 304.094 327.075 303.787 326.304 303.786H210.073Z" fill="white"/>
<path d="M124.237 74.5693H15.2021L40.8617 30.125C41.3215 29.3284 41.983 28.6669 42.7795 28.207C43.5761 27.747 44.4797 27.5049 45.3995 27.5049C46.3194 27.5049 47.2229 27.747 48.0195 28.207C48.8161 28.6669 49.4775 29.3284 49.9374 30.125L60.8988 49.1108L79.537 16.8287C80.1128 15.8313 80.9409 15.0031 81.9382 14.4273C82.9355 13.8515 84.0668 13.5483 85.2184 13.5483C86.37 13.5483 87.5014 13.8515 88.4987 14.4273C89.496 15.0031 90.3242 15.8313 90.8999 16.8287L124.237 74.5693Z" fill="white"/>
<path d="M124.339 74.5575H8.10853C6.82457 74.556 5.59363 74.0453 4.68573 73.1374C3.77784 72.2295 3.26713 70.9985 3.26562 69.7146V4.84294C3.26713 3.55897 3.77784 2.32803 4.68573 1.42013C5.59363 0.512227 6.82457 0.00150766 8.10853 0H124.339C125.623 0.00150766 126.854 0.512227 127.762 1.42013C128.67 2.32803 129.181 3.55897 129.182 4.84294V69.7145C129.181 70.9985 128.67 72.2295 127.762 73.1374C126.854 74.0453 125.623 74.556 124.339 74.5575ZM8.10853 1.93717C7.33814 1.93801 6.59955 2.24442 6.05479 2.78918C5.51004 3.33393 5.20364 4.07254 5.2028 4.84294V69.7145C5.20364 70.4849 5.51004 71.2235 6.05479 71.7683C6.59955 72.3131 7.33814 72.6195 8.10853 72.6203H124.339C125.11 72.6195 125.848 72.3131 126.393 71.7683C126.938 71.2235 127.244 70.4849 127.245 69.7145V4.84294C127.244 4.07254 126.938 3.33393 126.393 2.78918C125.848 2.24442 125.11 1.93801 124.339 1.93717H8.10853Z" fill="white"/>
<path d="M611.84 271.987C629.1 271.987 643.092 257.995 643.092 240.735C643.092 223.475 629.1 209.483 611.84 209.483C594.58 209.483 580.588 223.475 580.588 240.735C580.588 257.995 594.58 271.987 611.84 271.987Z" fill="#FFB8B8"/>
<path d="M643.938 297.327L590.725 296.482C595.302 283.87 597.285 272.062 594.103 261.852L634.646 257.628C629.168 270.861 632.266 284.094 643.938 297.327Z" fill="#FFB8B8"/>
<path d="M533.288 506.801L542.124 530.365C542.883 532.386 543.172 534.554 542.971 536.704C542.77 538.854 542.083 540.93 540.963 542.776C539.843 544.623 538.319 546.19 536.505 547.362C534.691 548.533 532.634 549.278 530.491 549.539C528.44 549.789 526.36 549.591 524.393 548.958C522.426 548.326 520.62 547.273 519.1 545.874C517.58 544.475 516.382 542.763 515.589 540.855C514.795 538.948 514.425 536.891 514.505 534.826L515.55 507.645L523.152 368.278L554.404 377.569L533.288 506.801Z" fill="#FFB8B8"/>
<path d="M690.393 506.801L681.556 530.365C680.798 532.386 680.509 534.554 680.71 536.704C680.911 538.854 681.597 540.93 682.717 542.776C683.837 544.623 685.362 546.19 687.176 547.362C688.99 548.533 691.046 549.278 693.19 549.539C695.24 549.789 697.321 549.591 699.288 548.958C701.254 548.326 703.06 547.273 704.58 545.874C706.1 544.475 707.298 542.763 708.092 540.855C708.885 538.948 709.255 536.891 709.176 534.826L708.13 507.645L700.528 368.278L669.276 377.569L690.393 506.801Z" fill="#FFB8B8"/>
<path d="M657.451 768.643L632.113 766.109L609.307 544.81L577.21 770.332L553.559 769.488L547.647 522.004H660.83L657.451 768.643Z" fill="#2F2E41"/>
<path d="M574.676 228.91C574.676 228.91 583.122 247.493 589.035 248.337C594.947 249.182 605.083 258.473 603.394 262.696C601.705 266.92 602.549 279.589 619.442 277.9C636.335 276.211 635.491 274.522 635.491 274.522C635.491 274.522 662.52 222.998 634.646 209.483C606.773 195.969 582.278 206.105 574.676 228.91Z" fill="#2F2E41"/>
<path d="M552.267 757.398L553.282 778.718C553.282 778.718 537.809 802.851 557.098 802.851C557.291 802.851 556.907 802.852 557.098 802.851C571.048 802.807 583.656 809.085 582.006 795.233L579.678 775.672L575.617 754.353L552.267 757.398Z" fill="#2F2E41"/>
<path d="M657.241 757.398L656.225 778.718C656.225 778.718 671.699 802.851 652.41 802.851C652.217 802.851 652.6 802.852 652.41 802.851C638.46 802.807 625.852 809.085 627.501 795.233L629.83 775.672L633.891 754.353L657.241 757.398Z" fill="#2F2E41"/>
<path d="M670.121 532.14L544.268 526.228C567.74 450.907 567.913 389.277 538.355 332.527C538.355 326.59 540.095 320.783 543.358 315.823C546.622 310.864 551.267 306.969 556.72 304.62L593.258 288.881L639.714 291.415L670.367 308.274C676.37 311.576 681.322 316.5 684.657 322.484C687.992 328.469 689.575 335.271 689.225 342.113C662.388 406.177 660.855 469.349 670.121 532.14Z" fill="white"/>
<path d="M576.365 385.171L506.259 373.346L517.809 344.669C521.871 334.586 528.06 325.497 535.954 318.024C543.848 310.551 553.262 304.868 563.553 301.365L570.452 299.016L576.365 385.171Z" fill="white"/>
<path d="M647.315 385.171L717.422 373.346L705.871 344.669C701.81 334.586 695.621 325.497 687.727 318.024C679.832 310.551 670.418 304.868 660.128 301.365L653.228 299.016L647.315 385.171Z" fill="white"/>
</g>
<defs>
<clipPath id="clip0">
<rect width="722" height="811.494" fill="white"/>
</clipPath>
</defs>
</svg>
