<svg width="722" height="450" viewBox="0 0 722 450" fill="none" xmlns="http://www.w3.org/2000/svg">
<g clip-path="url(#clip0)">
<path d="M68.0911 435.703C71.2859 440.009 75.2465 443.69 79.7747 446.561C80.7377 447.172 81.7263 447.748 82.7321 448.281H106.4C106.117 447.713 105.842 447.137 105.575 446.561C98.2365 431.076 95.9353 413.681 98.9948 396.82C102.054 379.96 110.321 364.482 122.632 352.563C108.326 356.981 95.1037 365.596 86.4548 377.812C82.2523 383.761 79.2636 390.48 77.6597 397.585C76.2304 383.376 78.502 369.038 84.2538 355.967C72.639 365.415 63.5942 378.353 60.1469 392.917C56.6996 407.488 59.2011 423.659 68.0911 435.703Z" fill="#F0F0F0"/>
<path d="M718.258 241.564H557.343C556.351 241.562 555.4 241.168 554.698 240.466C553.997 239.765 553.602 238.814 553.601 237.821V138.284C553.602 137.291 553.997 136.34 554.698 135.639C555.4 134.937 556.351 134.543 557.343 134.542H718.258C719.25 134.543 720.201 134.937 720.903 135.639C721.604 136.34 721.999 137.291 722 138.284V237.821C721.999 238.814 721.604 239.765 720.903 240.466C720.201 241.168 719.25 241.562 718.258 241.564Z" fill="#F8F8F8"/>
<path d="M718.258 241.564H557.343C556.351 241.562 555.4 241.168 554.698 240.466C553.997 239.765 553.602 238.814 553.601 237.821V138.284C553.602 137.291 553.997 136.34 554.698 135.639C555.4 134.937 556.351 134.543 557.343 134.542H718.258C719.25 134.543 720.201 134.937 720.903 135.639C721.604 136.34 721.999 137.291 722 138.284V237.821C721.999 238.814 721.604 239.765 720.903 240.466C720.201 241.168 719.25 241.562 718.258 241.564ZM557.343 136.038C556.748 136.039 556.177 136.276 555.756 136.697C555.335 137.118 555.098 137.688 555.098 138.284V237.821C555.098 238.417 555.335 238.987 555.756 239.408C556.177 239.829 556.748 240.066 557.343 240.067H718.258C718.853 240.066 719.424 239.829 719.845 239.408C720.266 238.987 720.502 238.417 720.503 237.821V138.284C720.502 137.688 720.266 137.118 719.845 136.697C719.424 136.276 718.853 136.039 718.258 136.038H557.343Z" fill="#EBEBEB"/>
<path d="M686.449 167.784H589.152C588.258 167.784 587.402 167.43 586.77 166.798C586.139 166.166 585.784 165.31 585.784 164.417C585.784 163.523 586.139 162.667 586.77 162.035C587.402 161.404 588.258 161.049 589.152 161.049H686.449C687.342 161.049 688.199 161.404 688.831 162.035C689.462 162.667 689.817 163.523 689.817 164.417C689.817 165.31 689.462 166.166 688.831 166.798C688.199 167.43 687.342 167.784 686.449 167.784Z" fill="#CCCCCC"/>
<path d="M686.449 190.985H589.152C588.258 190.985 587.402 190.63 586.77 189.999C586.139 189.367 585.784 188.51 585.784 187.617C585.784 186.724 586.139 185.867 586.77 185.236C587.402 184.604 588.258 184.249 589.152 184.249H686.449C687.342 184.249 688.199 184.604 688.831 185.236C689.462 185.867 689.817 186.724 689.817 187.617C689.817 188.51 689.462 189.367 688.831 189.999C688.199 190.63 687.342 190.985 686.449 190.985Z" fill="#CCCCCC"/>
<path d="M677.781 227.77C684.428 227.77 689.817 222.381 689.817 215.734C689.817 209.087 684.428 203.699 677.781 203.699C671.133 203.699 665.745 209.087 665.745 215.734C665.745 222.381 671.133 227.77 677.781 227.77Z" fill="#EA544A"/>
<path d="M678.111 210.064V208.918H678.451V210.064C678.931 210.085 679.403 210.201 679.839 210.404C680.155 210.553 680.428 210.78 680.631 211.064C680.819 211.327 680.919 211.642 680.918 211.966C680.925 212.202 680.846 212.432 680.695 212.614C680.63 212.697 680.547 212.764 680.453 212.81C680.358 212.856 680.254 212.879 680.148 212.878C680.07 212.88 679.992 212.865 679.919 212.835C679.846 212.806 679.781 212.761 679.726 212.705C679.669 212.649 679.624 212.582 679.595 212.508C679.565 212.434 679.55 212.355 679.552 212.275C679.553 212.163 679.576 212.053 679.62 211.95L679.756 211.664C679.804 211.544 679.827 211.416 679.824 211.287C679.828 211.087 679.764 210.891 679.643 210.732C679.511 210.565 679.332 210.441 679.13 210.374C678.91 210.302 678.682 210.256 678.451 210.238V214.364L678.526 214.41C679.236 214.785 679.88 215.272 680.435 215.851C680.681 216.142 680.876 216.472 681.012 216.828C681.148 217.173 681.218 217.54 681.22 217.91C681.226 218.39 681.101 218.862 680.858 219.276C680.62 219.679 680.272 220.007 679.854 220.219C679.414 220.435 678.939 220.572 678.451 220.626V221.856H678.112V220.649C677.619 220.645 677.132 220.545 676.678 220.354C676.225 220.186 675.825 219.899 675.52 219.525C675.251 219.188 675.106 218.77 675.109 218.34C675.099 218.038 675.192 217.741 675.373 217.499C675.444 217.394 675.54 217.308 675.652 217.249C675.763 217.189 675.888 217.157 676.014 217.156C676.09 217.153 676.166 217.166 676.236 217.194C676.307 217.222 676.371 217.264 676.425 217.317C676.479 217.371 676.521 217.435 676.549 217.506C676.577 217.576 676.59 217.652 676.588 217.728C676.562 217.96 676.464 218.178 676.308 218.353C676.227 218.46 676.158 218.576 676.101 218.699C676.062 218.794 676.043 218.897 676.044 219C676.046 219.275 676.14 219.542 676.312 219.756C676.5 219.997 676.749 220.182 677.033 220.294C677.357 220.421 677.703 220.482 678.051 220.475H678.111V215.549L677.681 215.3C677.274 215.064 676.963 214.867 676.75 214.711C676.541 214.56 676.348 214.388 676.173 214.198C675.739 213.737 675.499 213.127 675.501 212.494C675.499 212.099 675.598 211.711 675.788 211.366C675.974 211.021 676.247 210.731 676.58 210.525C677.044 210.245 677.57 210.087 678.111 210.064ZM678.111 210.23C677.819 210.24 677.531 210.303 677.263 210.419C676.994 210.552 676.774 210.765 676.632 211.029C676.47 211.316 676.387 211.64 676.391 211.97C676.388 212.371 676.512 212.764 676.744 213.092C676.867 213.27 677.015 213.43 677.184 213.566C677.456 213.769 677.741 213.955 678.036 214.123L678.111 214.168V210.23ZM678.451 220.46C678.645 220.444 678.837 220.403 679.022 220.339C679.171 220.281 679.311 220.2 679.435 220.098C679.668 219.899 679.848 219.647 679.961 219.362C680.092 219.048 680.158 218.711 680.156 218.37C680.126 217.824 679.953 217.295 679.653 216.837C679.354 216.378 678.939 216.007 678.451 215.76V220.46Z" fill="#F8F8F8"/>
<path d="M608.642 174.937H447.727C446.735 174.936 445.784 174.542 445.082 173.84C444.381 173.139 443.986 172.188 443.985 171.195V71.6576C443.986 70.6655 444.381 69.7144 445.082 69.0128C445.784 68.3113 446.735 67.9167 447.727 67.9156H608.642C609.634 67.9167 610.585 68.3113 611.287 69.0128C611.989 69.7144 612.383 70.6655 612.384 71.6576V171.195C612.383 172.188 611.989 173.139 611.287 173.84C610.585 174.542 609.634 174.936 608.642 174.937Z" fill="#F8F8F8"/>
<path d="M608.642 174.937H447.727C446.735 174.936 445.784 174.542 445.082 173.84C444.381 173.139 443.986 172.188 443.985 171.195V71.6576C443.986 70.6655 444.381 69.7144 445.082 69.0128C445.784 68.3113 446.735 67.9167 447.727 67.9156H608.642C609.634 67.9167 610.585 68.3113 611.287 69.0128C611.989 69.7144 612.383 70.6655 612.384 71.6576V171.195C612.383 172.188 611.989 173.139 611.287 173.84C610.585 174.542 609.634 174.936 608.642 174.937ZM447.727 69.4124C447.132 69.413 446.561 69.6498 446.14 70.0707C445.719 70.4916 445.483 71.0623 445.482 71.6576V171.195C445.483 171.791 445.719 172.361 446.14 172.782C446.561 173.203 447.132 173.44 447.727 173.441H608.642C609.237 173.44 609.808 173.203 610.229 172.782C610.65 172.361 610.887 171.791 610.887 171.195V71.6576C610.887 71.0623 610.65 70.4916 610.229 70.0707C609.808 69.6498 609.237 69.413 608.642 69.4124H447.727Z" fill="#EBEBEB"/>
<path d="M576.833 101.158H479.536C478.643 101.158 477.786 100.804 477.154 100.172C476.523 99.5404 476.168 98.6838 476.168 97.7906C476.168 96.8974 476.523 96.0407 477.154 95.4091C477.786 94.7775 478.643 94.4227 479.536 94.4227H576.833C577.727 94.4227 578.583 94.7775 579.215 95.4091C579.846 96.0407 580.201 96.8974 580.201 97.7906C580.201 98.6838 579.846 99.5404 579.215 100.172C578.583 100.804 577.727 101.158 576.833 101.158Z" fill="#CCCCCC"/>
<path d="M576.833 124.359H479.536C478.643 124.359 477.786 124.004 477.154 123.373C476.523 122.741 476.168 121.884 476.168 120.991C476.168 120.098 476.523 119.241 477.154 118.61C477.786 117.978 478.643 117.623 479.536 117.623H576.833C577.727 117.623 578.583 117.978 579.215 118.61C579.846 119.241 580.201 120.098 580.201 120.991C580.201 121.884 579.846 122.741 579.215 123.373C578.583 124.004 577.727 124.359 576.833 124.359Z" fill="#CCCCCC"/>
<path d="M568.165 161.144C574.812 161.144 580.201 155.755 580.201 149.108C580.201 142.461 574.812 137.073 568.165 137.073C561.518 137.073 556.129 142.461 556.129 149.108C556.129 155.755 561.518 161.144 568.165 161.144Z" fill="#EA544A"/>
<path d="M568.496 143.438V142.292H568.835V143.438C569.316 143.459 569.787 143.575 570.223 143.778C570.54 143.926 570.812 144.154 571.015 144.438C571.203 144.701 571.303 145.016 571.302 145.34C571.309 145.576 571.23 145.806 571.08 145.988C571.015 146.071 570.932 146.138 570.837 146.184C570.742 146.23 570.638 146.253 570.533 146.252C570.454 146.254 570.376 146.239 570.303 146.209C570.231 146.18 570.165 146.135 570.11 146.079C570.053 146.023 570.009 145.956 569.979 145.882C569.949 145.808 569.935 145.729 569.937 145.649C569.937 145.537 569.96 145.427 570.005 145.324L570.14 145.038C570.188 144.918 570.211 144.79 570.208 144.661C570.212 144.461 570.148 144.265 570.027 144.106C569.895 143.939 569.717 143.815 569.514 143.748C569.294 143.676 569.066 143.63 568.835 143.612V147.738L568.911 147.784C569.62 148.159 570.264 148.645 570.819 149.225C571.065 149.516 571.26 149.846 571.397 150.202C571.532 150.547 571.602 150.914 571.604 151.284C571.61 151.764 571.485 152.236 571.242 152.65C571.004 153.053 570.656 153.38 570.238 153.593C569.798 153.809 569.323 153.946 568.835 154V155.23H568.496V154.023C568.003 154.019 567.516 153.919 567.062 153.728C566.609 153.56 566.209 153.273 565.904 152.898C565.636 152.562 565.49 152.144 565.493 151.714C565.484 151.412 565.577 151.115 565.757 150.873C565.828 150.768 565.924 150.682 566.036 150.623C566.147 150.563 566.272 150.531 566.398 150.53C566.474 150.527 566.55 150.54 566.621 150.568C566.691 150.596 566.756 150.638 566.809 150.691C566.863 150.745 566.905 150.809 566.933 150.88C566.961 150.95 566.974 151.026 566.972 151.102C566.946 151.334 566.849 151.552 566.693 151.727C566.611 151.834 566.542 151.95 566.485 152.073C566.446 152.168 566.427 152.271 566.429 152.374C566.43 152.649 566.524 152.916 566.696 153.13C566.884 153.371 567.133 153.556 567.417 153.668C567.741 153.795 568.087 153.856 568.435 153.849H568.496V148.923L568.066 148.674C567.658 148.438 567.348 148.241 567.134 148.085C566.925 147.934 566.732 147.762 566.557 147.572C566.123 147.111 565.883 146.501 565.885 145.868C565.883 145.473 565.982 145.085 566.172 144.74C566.358 144.395 566.631 144.105 566.964 143.899C567.428 143.619 567.955 143.461 568.496 143.438ZM568.496 143.604C568.203 143.613 567.916 143.677 567.647 143.793C567.378 143.926 567.158 144.139 567.016 144.403C566.854 144.69 566.771 145.014 566.776 145.344C566.772 145.745 566.896 146.138 567.129 146.466C567.252 146.644 567.4 146.804 567.568 146.94C567.84 147.143 568.125 147.329 568.421 147.497L568.496 147.542V143.604ZM568.835 153.834C569.03 153.818 569.221 153.777 569.406 153.713C569.556 153.655 569.695 153.574 569.819 153.472C570.052 153.273 570.233 153.021 570.345 152.736C570.476 152.422 570.542 152.085 570.54 151.744C570.51 151.198 570.337 150.669 570.038 150.211C569.738 149.752 569.324 149.381 568.835 149.134V153.834Z" fill="#F8F8F8"/>
<path d="M275.067 160.085C273.665 159.984 272.258 160.191 270.945 160.692C269.632 161.194 268.445 161.977 267.467 162.986C266.489 163.996 265.745 165.208 265.286 166.536C264.828 167.865 264.666 169.278 264.812 170.676L233.877 185.178L249.018 194.449L276.074 179.256C278.406 178.854 280.51 177.611 281.986 175.762C283.463 173.913 284.21 171.586 284.086 169.223C283.962 166.86 282.975 164.625 281.313 162.941C279.651 161.256 277.429 160.24 275.067 160.085Z" fill="#FFB6B6"/>
<path d="M147.056 439.104L157.74 439.103L162.823 397.897L147.054 397.897L147.056 439.104Z" fill="#FFB6B6"/>
<path d="M144.331 435.616L165.371 435.615H165.372C168.928 435.615 172.339 437.028 174.853 439.542C177.368 442.057 178.78 445.467 178.781 449.023V449.458L144.332 449.46L144.331 435.616Z" fill="#2F2E41"/>
<path d="M201.572 439.104L212.256 439.103L217.338 397.897L201.57 397.897L201.572 439.104Z" fill="#FFB6B6"/>
<path d="M198.847 435.616L219.887 435.615H219.888C223.444 435.615 226.854 437.028 229.369 439.542C231.883 442.057 233.296 445.467 233.296 449.023V449.458L198.848 449.46L198.847 435.616Z" fill="#2F2E41"/>
<path d="M208.708 225.376L214.131 237.049L223.907 341.448L216.308 431.181H198.534L177.562 289.742L167.711 427.923L143.73 426.955L139.126 239.611L208.708 225.376Z" fill="#2F2E41"/>
<path d="M122.296 129.035L144.777 119.889L176.509 121.668L204.719 131.948L214.131 237.049C189.589 250.45 164.729 254.108 139.436 244.526L115.962 176.071L122.296 129.035Z" fill="#EA544A"/>
<path d="M195.942 134.727L205.919 131.948C205.919 131.948 213.465 127.042 215.947 141.626C218.43 156.21 231.205 178.895 231.205 178.895L253.074 167.241L263.198 189.351L228.662 210.271L192.293 173.627L195.942 134.727Z" fill="#EA544A"/>
<path d="M141.219 100.416C140.008 97.6673 139.35 94.7066 139.282 91.7033C139.215 88.7 139.74 85.7129 140.827 82.9124C141.914 80.112 143.543 77.5531 145.619 75.3819C147.695 73.2106 150.179 71.4696 152.928 70.2581C155.677 69.0467 158.638 68.3885 161.641 68.3212C164.644 68.254 167.632 68.7789 170.432 69.8661C173.233 70.9532 175.792 72.5814 177.963 74.6575C180.135 76.7336 181.876 79.217 183.087 81.9659L183.218 82.2685C185.625 87.8388 185.721 94.1371 183.484 99.7779C182.376 102.571 180.73 105.118 178.637 107.275C176.545 109.432 174.049 111.155 171.291 112.347C165.72 114.754 159.421 114.85 153.78 112.613C148.139 110.376 143.618 105.99 141.211 100.42L141.219 100.416Z" fill="#FFB6B6"/>
<path d="M172.277 79.4799C177.034 80.3429 184.396 83.3375 188.481 79.8244C186.463 77.4669 183.925 75.6107 181.067 74.402C180.505 74.2153 179.983 73.9208 179.533 73.5348C178.14 72.1273 179.216 69.702 178.579 67.799C178.269 67.1035 177.803 66.4895 177.215 66.0053C176.628 65.521 175.936 65.1798 175.195 65.0085C173.777 64.5842 172.291 64.5154 170.898 64.0009C167.601 62.7621 165.258 59.2169 161.879 58.2536C158.935 57.402 155.973 58.7254 153.432 60.2698C150.892 61.8141 148.378 63.6465 145.406 63.9396C143.185 64.1422 141.779 67.7955 139.549 67.9025C134.876 68.1298 135.136 65.0501 134.79 69.9589C134.591 72.8881 130.405 78.7155 130.473 81.6702C130.542 83.6063 130.199 85.5239 130.255 87.466C130.38 91.1648 131.864 94.6878 134.422 97.3623C136.55 99.5499 139.317 101.025 141.107 103.519C142.039 104.843 142.685 106.388 143.769 107.586C144.853 108.783 146.689 109.504 147.899 108.649C149.109 107.794 149.132 105.943 149.732 104.535C150.1 103.672 150.729 102.945 151.531 102.457C152.333 101.969 153.267 101.744 154.203 101.813C155.175 101.94 156.093 102.336 156.852 102.956C157.612 103.576 158.183 104.396 158.503 105.323C157.936 102.211 156.442 99.2949 155.875 96.1804C155.307 93.0659 156.047 89.3453 158.729 88.1293C159.88 87.5935 161.436 87.4496 161.899 86.2149C162.182 85.4712 161.923 84.5925 162.032 83.7881C162.621 79.8465 169.176 78.8713 172.277 79.4799Z" fill="#2F2E41"/>
<path d="M142.131 243.311C141.926 241.92 141.419 240.592 140.645 239.418C139.871 238.245 138.849 237.256 137.651 236.521C136.453 235.785 135.109 235.321 133.712 235.161C132.316 235.002 130.901 235.15 129.569 235.596L108.704 208.542L102.936 225.332L123.634 248.449C124.531 250.639 126.201 252.423 128.326 253.463C130.452 254.504 132.885 254.729 135.165 254.096C137.445 253.462 139.413 252.015 140.697 250.027C141.981 248.039 142.491 245.649 142.131 243.311V243.311Z" fill="#FFB6B6"/>
<path d="M129.502 134.137L122.296 129.035C122.296 129.035 105.809 128.09 103.41 141.626L73.1792 191.355L110.662 243.063L128.834 223.935L105.905 197.14L125.157 161.793L129.502 134.137Z" fill="#EA544A"/>
<path d="M305.079 142.017H304.701V131.661C304.701 130.873 304.546 130.094 304.245 129.367C303.944 128.639 303.502 127.979 302.946 127.422C302.389 126.865 301.728 126.424 301.001 126.123C300.274 125.821 299.494 125.666 298.707 125.666H276.764C275.976 125.666 275.197 125.821 274.47 126.123C273.742 126.424 273.082 126.865 272.525 127.422C271.968 127.979 271.527 128.639 271.225 129.367C270.924 130.094 270.769 130.873 270.769 131.66V188.478C270.769 189.266 270.924 190.045 271.225 190.772C271.527 191.5 271.968 192.16 272.525 192.717C273.082 193.274 273.742 193.715 274.47 194.016C275.197 194.318 275.976 194.473 276.764 194.473H298.707C299.494 194.473 300.274 194.318 301.001 194.016C301.728 193.715 302.389 193.274 302.946 192.717C303.502 192.16 303.944 191.5 304.245 190.772C304.546 190.045 304.701 189.266 304.701 188.478V149.389H305.079V142.017Z" fill="#A2A2A2"/>
<path d="M298.949 127.226H296.084C296.216 127.549 296.266 127.899 296.231 128.246C296.195 128.593 296.075 128.926 295.88 129.215C295.686 129.505 295.423 129.742 295.115 129.906C294.807 130.07 294.464 130.156 294.115 130.156H281.544C281.195 130.156 280.852 130.07 280.544 129.906C280.236 129.742 279.974 129.505 279.779 129.215C279.585 128.926 279.464 128.593 279.429 128.246C279.393 127.899 279.443 127.549 279.575 127.226H276.9C275.713 127.226 274.574 127.697 273.734 128.537C272.895 129.376 272.423 130.515 272.423 131.702V188.437C272.423 189.624 272.895 190.763 273.734 191.602C274.574 192.442 275.713 192.913 276.9 192.913H298.949C300.136 192.913 301.275 192.442 302.114 191.602C302.954 190.763 303.425 189.624 303.425 188.437V131.702C303.425 130.515 302.954 129.376 302.114 128.537C301.275 127.697 300.136 127.226 298.949 127.226Z" fill="#EA544A"/>
<path d="M496.877 107.022H335.962C334.97 107.021 334.019 106.626 333.317 105.925C332.616 105.223 332.221 104.272 332.22 103.28V3.74203C332.221 2.74994 332.616 1.79879 333.317 1.09727C334.019 0.395748 334.97 0.00113539 335.962 0H496.877C497.869 0.00113539 498.82 0.395747 499.522 1.09727C500.223 1.79879 500.618 2.74994 500.619 3.74203V103.28C500.618 104.272 500.223 105.223 499.522 105.925C498.82 106.626 497.869 107.021 496.877 107.022Z" fill="#F8F8F8"/>
<path d="M496.877 107.022H335.962C334.97 107.021 334.019 106.626 333.317 105.925C332.616 105.223 332.221 104.272 332.22 103.28V3.74203C332.221 2.74994 332.616 1.79879 333.317 1.09727C334.019 0.395748 334.97 0.00113539 335.962 0H496.877C497.869 0.00113539 498.82 0.395747 499.522 1.09727C500.223 1.79879 500.618 2.74994 500.619 3.74203V103.28C500.618 104.272 500.223 105.223 499.522 105.925C498.82 106.626 497.869 107.021 496.877 107.022ZM335.962 1.49681C335.367 1.49746 334.796 1.73422 334.375 2.15514C333.954 2.57606 333.717 3.14677 333.717 3.74203V103.28C333.717 103.875 333.954 104.446 334.375 104.867C334.796 105.288 335.367 105.524 335.962 105.525H496.877C497.472 105.524 498.043 105.288 498.464 104.867C498.885 104.446 499.122 103.875 499.122 103.28V3.74203C499.122 3.14677 498.885 2.57606 498.464 2.15514C498.043 1.73422 497.472 1.49746 496.877 1.49681H335.962Z" fill="#EBEBEB"/>
<path d="M465.068 33.2428H367.771C366.878 33.2428 366.021 32.888 365.389 32.2564C364.758 31.6248 364.403 30.7682 364.403 29.875C364.403 28.9818 364.758 28.1252 365.389 27.4936C366.021 26.862 366.878 26.5072 367.771 26.5072H465.068C465.961 26.5072 466.818 26.862 467.45 27.4936C468.081 28.1252 468.436 28.9818 468.436 29.875C468.436 30.7682 468.081 31.6248 467.45 32.2564C466.818 32.888 465.961 33.2428 465.068 33.2428Z" fill="#CCCCCC"/>
<path d="M465.068 56.4434H367.771C366.878 56.4434 366.021 56.0886 365.389 55.457C364.758 54.8254 364.403 53.9688 364.403 53.0756C364.403 52.1824 364.758 51.3257 365.389 50.6941C366.021 50.0625 366.878 49.7077 367.771 49.7077H465.068C465.961 49.7077 466.818 50.0625 467.45 50.6941C468.081 51.3257 468.436 52.1824 468.436 53.0756C468.436 53.9688 468.081 54.8254 467.45 55.457C466.818 56.0886 465.961 56.4434 465.068 56.4434Z" fill="#CCCCCC"/>
<path d="M456.4 93.2284C463.047 93.2284 468.436 87.8398 468.436 81.1927C468.436 74.5456 463.047 69.157 456.4 69.157C449.752 69.157 444.364 74.5456 444.364 81.1927C444.364 87.8398 449.752 93.2284 456.4 93.2284Z" fill="#EA544A"/>
<path d="M456.73 75.5228V74.3762H457.07V75.5228C457.551 75.5437 458.022 75.6591 458.458 75.8623C458.774 76.0109 459.047 76.2382 459.25 76.5226C459.438 76.7856 459.538 77.1009 459.537 77.4239C459.544 77.66 459.465 77.8907 459.314 78.0727C459.25 78.1556 459.166 78.2225 459.072 78.2683C458.977 78.3141 458.873 78.3375 458.767 78.3367C458.689 78.3383 458.611 78.3236 458.538 78.2938C458.466 78.264 458.4 78.2195 458.345 78.1633C458.288 78.1072 458.244 78.0402 458.214 77.9662C458.184 77.8923 458.169 77.813 458.171 77.7333C458.172 77.6216 458.195 77.5112 458.239 77.4088L458.375 77.1222C458.423 77.0024 458.446 76.874 458.443 76.745C458.447 76.5451 458.383 76.3498 458.262 76.1906C458.13 76.0237 457.951 75.8991 457.749 75.8321C457.529 75.76 457.301 75.7144 457.07 75.6963V79.8228L457.146 79.8681C457.855 80.2434 458.499 80.7299 459.054 81.309C459.3 81.5999 459.495 81.9302 459.631 82.286C459.767 82.6309 459.837 82.9979 459.839 83.3685C459.845 83.8481 459.72 84.3204 459.477 84.7339C459.239 85.1377 458.891 85.4649 458.473 85.6769C458.033 85.8929 457.558 86.0308 457.07 86.0843V87.3139H456.731V86.1069C456.238 86.103 455.751 86.0031 455.297 85.8127C454.844 85.6442 454.444 85.3577 454.139 84.9829C453.871 84.6468 453.725 84.2287 453.728 83.7985C453.718 83.4963 453.812 83.1998 453.992 82.9572C454.063 82.8526 454.159 82.7668 454.271 82.7071C454.382 82.6473 454.507 82.6154 454.633 82.6141C454.709 82.6114 454.785 82.6244 454.856 82.6522C454.926 82.68 454.99 82.722 455.044 82.7757C455.098 82.8293 455.14 82.8934 455.168 82.9641C455.196 83.0347 455.209 83.1103 455.207 83.1862C455.181 83.4185 455.083 83.6369 454.928 83.8109C454.846 83.9186 454.777 84.0347 454.72 84.1572C454.681 84.2528 454.662 84.3551 454.663 84.4582C454.665 84.7334 454.759 84.9999 454.931 85.2146C455.119 85.455 455.368 85.6408 455.652 85.7526C455.976 85.8791 456.322 85.9406 456.67 85.9334H456.731V81.0073L456.301 80.7583C455.893 80.522 455.583 80.3259 455.369 80.1699C455.16 80.0184 454.967 79.8466 454.792 79.6569C454.358 79.1952 454.118 78.5852 454.12 77.952C454.118 77.5578 454.217 77.1696 454.407 76.8243C454.593 76.4797 454.866 76.1897 455.199 75.983C455.663 75.7034 456.189 75.5452 456.73 75.5228ZM456.73 75.6888C456.438 75.6979 456.15 75.7618 455.882 75.8771C455.613 76.0101 455.393 76.2232 455.251 76.487C455.089 76.7739 455.006 77.0986 455.01 77.428C455.007 77.8298 455.131 78.2223 455.363 78.5499C455.487 78.7282 455.635 78.888 455.803 79.0245C456.075 79.2277 456.36 79.4137 456.655 79.5815L456.73 79.6268V75.6888ZM457.07 85.9184C457.265 85.9021 457.456 85.8615 457.641 85.7977C457.791 85.7397 457.93 85.6582 458.054 85.5563C458.287 85.3579 458.467 85.1053 458.58 84.8208C458.711 84.5066 458.777 84.1692 458.775 83.8287C458.745 83.2822 458.572 82.7532 458.272 82.295C457.973 81.8368 457.558 81.4655 457.07 81.2185V85.9184Z" fill="#F8F8F8"/>
<path d="M328.417 450H0.859732C0.631717 450 0.41304 449.909 0.251809 449.748C0.0905779 449.587 0 449.368 0 449.14C0 448.912 0.0905779 448.694 0.251809 448.532C0.41304 448.371 0.631717 448.281 0.859732 448.281H328.417C328.645 448.281 328.864 448.371 329.025 448.532C329.187 448.694 329.277 448.912 329.277 449.14C329.277 449.368 329.187 449.587 329.025 449.748C328.864 449.909 328.645 450 328.417 450Z" fill="#CACACA"/>
</g>
<defs>
<clipPath id="clip0">
<rect width="722" height="450" fill="white"/>
</clipPath>
</defs>
</svg>
