<svg width="60" height="60" viewBox="0 0 60 60" fill="none" xmlns="http://www.w3.org/2000/svg">
<circle cx="30" cy="30" r="30" fill="white"/>
<path d="M30 15C24.4861 15 20 19.4861 20 25C20 26.6553 20.4138 28.2965 21.2006 29.7522L29.4532 44.6777C29.563 44.8767 29.7724 45 30 45C30.2277 45 30.437 44.8767 30.5469 44.6777L38.8025 29.7473C39.5862 28.2965 40 26.6552 40 25C40 19.4861 35.5139 15 30 15ZM30 30C27.2431 30 25 27.757 25 25C25 22.2431 27.2431 20 30 20C32.757 20 35 22.2431 35 25C35 27.757 32.757 30 30 30Z" fill="#EA544A"/>
</svg>
