<svg width="60" height="60" viewBox="0 0 60 60" fill="none" xmlns="http://www.w3.org/2000/svg">
<circle cx="30" cy="30" r="30" fill="white"/>
<path d="M36.7672 43.4484C34.1811 44.6123 31.9396 45 28.8791 45C21.7241 45 15.4307 39.8705 15.4307 31.4227C15.4307 22.6294 21.8099 15 31.5519 15C39.1382 15 44.5691 20.2158 44.5691 27.457C44.5691 33.75 41.0347 37.7156 36.3796 37.7156C34.3536 37.7156 32.8883 36.6811 32.6727 34.3964H32.5864C31.2505 36.5948 29.3108 37.7156 27.0261 37.7156C24.2244 37.7156 22.1985 35.6466 22.1985 32.1117C22.1985 26.8533 26.0779 22.0687 32.2846 22.0687C34.1811 22.0687 36.336 22.5431 37.4141 23.1464L36.1213 31.1208C35.6905 33.6633 35.9919 34.8277 37.1989 34.8703C39.0524 34.9134 41.3797 32.5425 41.3797 27.5859C41.3797 21.9825 37.7591 17.6287 31.0775 17.6287C24.4832 17.6287 18.7068 22.8014 18.7068 31.0341C18.7068 38.2322 23.3188 42.3272 29.7416 42.3272C31.94 42.3272 34.2679 41.8533 35.9914 40.9477L36.7672 43.4484ZM32.931 25.6467C32.586 25.5605 32.1547 25.4742 31.5946 25.4742C28.7502 25.4742 26.5082 28.2759 26.5082 31.5947C26.5082 33.2325 27.2413 34.267 28.6635 34.267C30.2582 34.267 31.9396 32.2411 32.3272 29.7413L32.931 25.6467Z" fill="#EA544A"/>
</svg>
