<svg width="60" height="60" viewBox="0 0 60 60" fill="none" xmlns="http://www.w3.org/2000/svg">
<circle cx="30" cy="30" r="30" fill="white"/>
<path d="M42.6316 34.7526C40.781 34.7526 38.9684 34.4637 37.2505 33.8968C36.4121 33.6079 35.46 33.8305 34.909 34.3926L31.5032 36.9648C27.5953 34.879 25.0942 32.3795 23.0369 28.5L25.5395 25.1747C26.1695 24.5447 26.3953 23.6226 26.1253 22.759C25.5537 21.03 25.2632 19.2158 25.2632 17.3684C25.2632 16.0626 24.2006 15 22.8948 15H17.3684C16.0626 15 15 16.0626 15 17.3684C15 32.6037 27.3963 45 42.6316 45C43.9374 45 45 43.9374 45 42.6316V37.1211C45 35.8153 43.9374 34.7526 42.6316 34.7526Z" fill="#EA544A"/>
</svg>
