<svg width="617" height="495" viewBox="0 0 617 495" fill="none" xmlns="http://www.w3.org/2000/svg">
<g clip-path="url(#clip0)">
<path d="M132.129 429.058C134.862 407.085 148.482 385.435 169.441 378.285C161.175 400.901 161.177 425.711 169.446 448.326C172.667 457.036 177.156 466.389 174.126 475.167C172.242 480.63 167.631 484.809 162.476 487.422C157.322 490.035 151.601 491.28 145.953 492.501L144.841 493.42C135.873 473.174 129.396 451.031 132.129 429.058Z" fill="#F0F0F0"/>
<path d="M169.65 378.7C157.444 392.373 149.858 409.545 147.969 427.774C147.492 431.692 147.637 435.659 148.396 439.532C149.258 443.28 151.108 446.729 153.753 449.521C156.168 452.173 158.945 454.607 160.673 457.8C161.533 459.448 162.035 461.259 162.146 463.114C162.257 464.97 161.975 466.827 161.317 468.566C159.792 472.94 156.785 476.506 153.724 479.89C150.325 483.648 146.735 487.498 145.29 492.48C145.115 493.083 144.189 492.776 144.364 492.174C146.877 483.506 155.293 478.582 159.306 470.775C161.179 467.132 161.965 462.903 160.209 459.058C158.674 455.695 155.813 453.183 153.344 450.518C150.723 447.833 148.8 444.546 147.742 440.946C146.788 437.125 146.491 433.169 146.864 429.248C147.564 420.408 149.649 411.733 153.044 403.54C156.866 394.168 162.264 385.52 169.004 377.968C169.421 377.501 170.064 378.236 169.65 378.7Z" fill="white"/>
<path d="M148.231 421.869C145.215 421.137 142.557 419.356 140.733 416.846C138.908 414.336 138.036 411.259 138.271 408.164C138.321 407.538 139.296 407.586 139.246 408.213C139.022 411.094 139.835 413.96 141.539 416.294C143.242 418.629 145.724 420.277 148.537 420.942C149.148 421.087 148.838 422.013 148.231 421.869Z" fill="white"/>
<path d="M152.351 448.337C157.799 445.085 161.82 439.9 163.613 433.815C163.791 433.212 164.717 433.519 164.54 434.121C162.662 440.45 158.466 445.837 152.79 449.209C152.249 449.53 151.813 448.657 152.351 448.337L152.351 448.337Z" fill="white"/>
<path d="M157.772 395.093C158.88 395.62 160.101 395.863 161.326 395.8C162.551 395.738 163.742 395.373 164.791 394.737C165.328 394.409 165.763 395.283 165.23 395.608C164.067 396.306 162.752 396.708 161.399 396.779C160.045 396.851 158.695 396.59 157.466 396.02C157.345 395.976 157.246 395.887 157.189 395.773C157.131 395.659 157.119 395.526 157.155 395.403C157.197 395.281 157.284 395.18 157.4 395.122C157.515 395.063 157.649 395.053 157.772 395.093Z" fill="white"/>
<path d="M233.327 417.531C232.998 417.745 232.668 417.959 232.338 418.181C227.924 421.083 223.753 424.339 219.867 427.917C219.562 428.188 219.257 428.468 218.961 428.748C209.689 437.467 202.116 447.831 196.628 459.313C194.449 463.884 192.62 468.615 191.159 473.463C189.14 480.159 187.485 487.58 183.489 493.057C183.079 493.633 182.633 494.184 182.155 494.705H146.049C145.967 494.663 145.884 494.63 145.802 494.589L144.36 494.655C144.418 494.4 144.484 494.136 144.542 493.881C144.575 493.733 144.616 493.584 144.649 493.436C144.673 493.337 144.698 493.238 144.715 493.148C144.723 493.115 144.731 493.082 144.739 493.057C144.756 492.967 144.781 492.884 144.797 492.802C145.16 491.328 145.533 489.853 145.917 488.379C145.917 488.371 145.917 488.371 145.925 488.363C148.883 477.137 152.804 466.059 158.282 455.928C158.447 455.623 158.611 455.31 158.793 455.006C161.287 450.453 164.15 446.112 167.352 442.025C169.112 439.793 170.985 437.652 172.962 435.609C178.08 430.341 183.996 425.911 190.491 422.481C203.441 415.645 218.433 413.025 232.273 417.201C232.627 417.308 232.973 417.415 233.327 417.531Z" fill="#F0F0F0"/>
<path d="M233.246 417.989C215.267 421.559 198.87 430.703 186.384 444.121C183.645 446.962 181.371 450.217 179.645 453.766C178.076 457.278 177.476 461.145 177.907 464.967C178.238 468.538 178.99 472.153 178.447 475.743C178.141 477.576 177.452 479.324 176.423 480.872C175.395 482.421 174.05 483.734 172.479 484.726C168.627 487.301 164.079 488.338 159.597 489.197C154.62 490.152 149.435 491.064 145.282 494.172C144.779 494.549 144.224 493.746 144.726 493.37C151.953 487.963 161.637 489.097 169.542 485.28C173.231 483.498 176.406 480.595 177.32 476.468C178.119 472.858 177.346 469.13 176.98 465.517C176.505 461.795 176.948 458.013 178.271 454.502C179.81 450.876 181.955 447.539 184.614 444.633C190.496 437.996 197.385 432.324 205.029 427.827C213.725 422.645 223.242 418.989 233.171 417.016C233.786 416.894 233.856 417.868 233.246 417.989V417.989Z" fill="white"/>
<path d="M190.15 439.564C188.183 437.164 187.133 434.142 187.188 431.04C187.243 427.937 188.399 424.955 190.45 422.626C190.866 422.156 191.616 422.781 191.199 423.252C189.285 425.417 188.208 428.195 188.163 431.084C188.118 433.974 189.107 436.784 190.952 439.008C191.353 439.492 190.548 440.045 190.15 439.564Z" fill="white"/>
<path d="M177.502 463.178C183.809 463.86 190.143 462.141 195.238 458.362C195.743 457.987 196.298 458.79 195.794 459.164C190.484 463.087 183.89 464.863 177.327 464.138C176.702 464.068 176.88 463.109 177.502 463.178Z" fill="white"/>
<path d="M213.891 423.928C214.459 425.015 215.287 425.944 216.303 426.632C217.319 427.32 218.489 427.745 219.71 427.869C220.336 427.93 220.157 428.89 219.535 428.829C218.188 428.686 216.895 428.215 215.772 427.458C214.648 426.7 213.727 425.679 213.089 424.484C213.019 424.376 212.993 424.246 213.016 424.12C213.039 423.994 213.109 423.881 213.212 423.805C213.318 423.732 213.45 423.704 213.577 423.727C213.704 423.75 213.817 423.822 213.891 423.928Z" fill="white"/>
<path d="M253.833 5.45996C252.304 5.46168 250.838 6.06965 249.757 7.1505C248.676 8.23135 248.068 9.6968 248.066 11.2254V255.019C248.068 256.548 248.676 258.013 249.757 259.094C250.838 260.174 252.304 260.782 253.833 260.784H611.347C612.876 260.782 614.341 260.174 615.422 259.094C616.503 258.013 617.111 256.548 617.113 255.019V11.2254C617.111 9.69682 616.503 8.23141 615.422 7.15057C614.341 6.06974 612.876 5.46174 611.347 5.45996H253.833Z" fill="#E6E6E6"/>
<path d="M262.07 13.6963C260.541 13.698 259.076 14.306 257.995 15.3868C256.914 16.4677 256.305 17.9331 256.304 19.4617V246.782C256.305 248.311 256.914 249.776 257.995 250.857C259.076 251.938 260.541 252.546 262.07 252.548H603.109C604.638 252.546 606.103 251.938 607.184 250.857C608.265 249.776 608.873 248.311 608.875 246.782V19.4617C608.873 17.9332 608.265 16.4677 607.184 15.3869C606.103 14.3061 604.638 13.6981 603.109 13.6963H262.07Z" fill="white"/>
<path opacity="0.1" d="M576.737 63.4058C568.895 60.3444 560.438 68.0223 558.601 76.237C556.763 84.4518 559.115 92.9475 559.633 101.349C560.15 109.751 557.948 119.507 550.45 123.337C541.829 127.742 531.717 122.016 522.075 121.144C517.262 120.761 512.431 121.606 508.033 123.598C503.635 125.59 499.814 128.664 496.927 132.534C488.975 143.441 489.38 159.279 479.97 168.957C471.794 177.366 458.471 178.461 447.034 175.861C435.596 173.26 425.083 167.611 413.837 164.281C402.591 160.951 389.573 160.255 379.935 166.939C369.875 173.917 365.397 187.595 354.352 192.88C346.542 196.617 337.298 195.192 328.941 192.929C320.583 190.666 312.156 187.613 303.528 188.34C294.901 189.066 285.906 195.018 285.223 203.648L581.334 202.821C582.679 163.743 584.025 124.665 585.37 85.5876C585.662 77.0985 584.651 66.4951 576.737 63.4058Z" fill="#EA544A"/>
<path d="M133.575 273.087C133.059 271.729 132.847 270.274 132.955 268.825C133.063 267.376 133.487 265.968 134.197 264.701C134.908 263.433 135.888 262.337 137.068 261.489C138.248 260.642 139.6 260.063 141.028 259.794L146.23 224.86L159.899 237.11L152.863 268.406C153.156 270.834 152.548 273.286 151.154 275.296C149.76 277.307 147.676 278.736 145.299 279.313C142.921 279.89 140.414 279.575 138.254 278.427C136.093 277.28 134.428 275.38 133.575 273.087Z" fill="#FFB6B6"/>
<path d="M38.1885 278.39C39.0762 277.24 39.7008 275.909 40.0184 274.491C40.336 273.073 40.3388 271.603 40.0266 270.184C39.7144 268.765 39.0948 267.432 38.2114 266.278C37.3281 265.124 36.2025 264.178 34.9139 263.507L40.0743 228.567L23.4381 236.324L21.0882 268.314C20.103 270.553 19.9736 273.076 20.7244 275.404C21.4753 277.733 23.0542 279.704 25.162 280.947C27.2699 282.189 29.7602 282.614 32.161 282.143C34.5619 281.672 36.7065 280.337 38.1885 278.39V278.39Z" fill="#FFB6B6"/>
<path d="M111.313 479.281L126.748 479.28L134.091 419.754L111.311 419.756L111.313 479.281Z" fill="#FFB6B6"/>
<path d="M107.376 474.242L137.773 474.241H137.775C142.912 474.241 147.839 476.282 151.472 479.914C155.105 483.546 157.146 488.473 157.146 493.609V494.239L107.377 494.241L107.376 474.242Z" fill="#2F2E41"/>
<path d="M28.9361 479.281L44.371 479.28L51.714 419.754L28.9336 419.756L28.9361 479.281Z" fill="#FFB6B6"/>
<path d="M24.999 474.242L55.3965 474.241H55.3978C60.5353 474.241 65.4623 476.282 69.0952 479.914C72.728 483.546 74.769 488.473 74.7694 493.609V494.239L24.9999 494.241L24.999 474.242Z" fill="#2F2E41"/>
<path d="M101.575 72.9606C116.974 72.9606 129.458 60.4792 129.458 45.0826C129.458 29.686 116.974 17.2046 101.575 17.2046C86.1759 17.2046 73.6924 29.686 73.6924 45.0826C73.6924 60.4792 86.1759 72.9606 101.575 72.9606Z" fill="#FFB6B6"/>
<path d="M35.5724 246.067C35.5724 246.067 35.9828 370.816 33.9911 372.808C31.9995 374.799 24.9297 449.405 24.9297 449.405H49.6426C51.2902 449.405 93.3294 286.888 93.3294 286.888C93.3294 286.888 111.254 374.505 108.266 379.483C105.279 384.461 107.608 449.721 109.262 455.152C109.262 455.152 130.028 461.796 132.019 456.818C134.011 451.839 136.962 384.338 136.962 384.338L142.728 272.325L142.854 243.08L35.5724 246.067Z" fill="#2F2E41"/>
<path d="M150.09 102.694H161.184C162 102.694 162.791 102.971 163.428 103.48C164.064 103.989 164.509 104.699 164.688 105.494C166.4 113.074 170.812 134.56 170.006 151.481C169.01 172.389 167.019 205.246 167.019 208.232C167.019 211.219 157.061 257.019 157.061 257.019C157.061 257.019 150.214 245.769 142.684 247.909L144.115 207.237L146.107 190.311L143.119 160.442L150.09 102.694Z" fill="#EA544A"/>
<path d="M79.3881 84.4648C79.3881 84.4648 44.0369 96.2223 40.0537 106.179C36.0705 116.135 55.4091 188.315 55.4091 188.315C55.4091 188.315 47.9952 221.26 38.062 252.538C33.5415 266.773 76.6811 254.586 96.5973 247.616C108.938 243.337 131.764 249.909 144.614 247.56C144.614 247.56 146.605 220.678 144.614 215.699C142.622 210.721 137.643 213.708 140.63 206.739C143.618 199.769 142.622 198.774 141.626 195.787C140.63 192.8 143.618 188.817 143.618 184.835C143.618 180.852 142.622 171.891 142.622 171.891C142.622 171.891 169.509 109.166 163.534 103.192C157.559 97.218 127.146 85.7074 127.146 85.7074C127.146 85.7074 127.9 86.1854 79.3881 84.4648Z" fill="#EA544A"/>
<path d="M46.5258 102.694L42.9892 104.462C41.6126 105.151 40.4139 106.148 39.487 107.377C38.5602 108.605 37.9303 110.031 37.6466 111.544L23.6222 186.328L20.6348 257.019C20.6348 257.019 37.5635 252.041 42.5426 257.019C42.5426 257.019 37.5635 242.084 40.551 237.106C43.5384 232.128 43.5384 225.158 43.5384 225.158C43.5384 225.158 41.5467 225.158 46.5258 220.18C51.5049 215.202 52.5006 213.211 51.5049 212.215C50.5091 211.22 49.5132 202.259 49.5132 201.263C49.5132 200.267 59.4713 133.559 59.4713 133.559L46.5258 102.694Z" fill="#EA544A"/>
<path d="M283.807 202.686C283.37 202.686 282.951 202.512 282.642 202.203C282.333 201.894 282.159 201.475 282.159 201.038C282.159 200.601 282.333 200.182 282.642 199.873C282.951 199.565 283.37 199.391 283.807 199.391C359.935 199.391 432.537 184.151 488.24 156.477C540.473 130.527 573.758 95.3381 579.56 59.9318C579.594 59.718 579.671 59.513 579.784 59.3287C579.898 59.1444 580.047 58.9843 580.222 58.8575C580.398 58.7308 580.597 58.6399 580.808 58.5901C581.018 58.5403 581.237 58.5325 581.451 58.5672C581.664 58.6019 581.869 58.6784 582.053 58.7923C582.238 58.9062 582.398 59.0553 582.524 59.2311C582.65 59.4068 582.741 59.6058 582.791 59.8166C582.84 60.0274 582.848 60.2459 582.812 60.4596L582.812 60.4642C579.798 78.8563 570.015 96.8977 553.736 114.088C537.681 131.042 516.138 146.296 489.707 159.427C433.557 187.323 360.434 202.686 283.807 202.686Z" fill="#EA544A"/>
<path d="M596.52 203.018H281.842V47.5767H283.489V201.371H596.52V203.018Z" fill="#E6E6E6"/>
<path d="M75.2946 54.4739C74.0201 51.3464 73.8152 47.8854 74.7116 44.6294C76.9891 50.6693 81.5142 48.8257 83.8199 45.9931C86.7116 42.4411 85.8789 34.238 90.4445 33.8709C95.01 33.5038 99.5754 34.3677 104.074 35.2277C103.329 33.9516 102.583 32.6754 101.838 31.3993C105.092 31.6012 108.347 31.8032 111.601 32.0051C110.632 30.4111 109.663 28.8171 108.694 27.2231C113.118 28.7775 117.165 31.2464 120.571 34.469C123.977 37.6917 126.666 41.5957 128.462 45.9266C130.15 43.1948 131.201 40.1183 131.538 36.925C131.876 33.7317 131.49 30.5035 130.41 27.4795C129.33 24.4555 127.583 21.7132 125.299 19.4558C123.015 17.1984 120.252 15.4837 117.215 14.4389C118.499 12.7548 119.783 11.0708 121.066 9.38682L94.9358 6.80872C94.8707 5.54944 95.1136 4.29328 95.6435 3.149C96.1733 2.00472 96.9742 1.00682 97.9766 0.241686C94.5548 -0.530877 90.9254 0.62804 88.0178 2.5899C85.1102 4.55178 82.7978 7.25718 80.524 9.92775C77.0812 13.9714 73.5969 18.0783 71.3433 22.8867C69.0318 28.0056 68.1776 33.663 68.8747 39.236C69.5719 44.8091 71.7933 50.0818 75.2946 54.4739ZM75.6104 42.2059L75.6109 42.2044L75.6371 42.1998L75.6104 42.2059Z" fill="#2F2E41"/>
<path d="M395.807 495.166H-137.412C-137.671 495.166 -137.92 495.062 -138.103 494.878C-138.287 494.694 -138.39 494.445 -138.39 494.186C-138.39 493.926 -138.287 493.677 -138.103 493.493C-137.92 493.309 -137.671 493.206 -137.412 493.205H395.807C396.066 493.206 396.315 493.309 396.498 493.493C396.682 493.677 396.785 493.926 396.785 494.186C396.785 494.445 396.682 494.694 396.498 494.878C396.315 495.062 396.066 495.166 395.807 495.166Z" fill="#CACACA"/>
</g>
<defs>
<clipPath id="clip0">
<rect width="617" height="495" fill="white"/>
</clipPath>
</defs>
</svg>
