<svg width="61" height="59" viewBox="0 0 61 59" fill="none" xmlns="http://www.w3.org/2000/svg">
<path d="M40.7905 45.8926L30.49 37.3774L19.7773 45.4806V58.116L30.49 49.7381L40.7905 58.2533V45.8926Z" fill="white"/>
<path d="M49.2568 24.7893L37.9528 31.9189L42.309 44.625L54.3136 48.5674L49.6965 35.7756L61.0004 28.646L49.2568 24.7893Z" fill="white"/>
<path d="M31.7451 10.3304L34.8926 23.319L48.3245 23.2473L55.8931 13.1295L42.2967 13.4212L39.1492 0.432598L31.7451 10.3304Z" fill="white"/>
<path d="M12.4979 22.819L25.6112 23.5401L29.8741 10.8024L22.2491 0.157676L18.5409 12.9304L5.08146 12.381L12.4979 22.819Z" fill="white"/>
<path d="M18.209 44.4699L23.1552 32.0544L12.1574 24.3428L0.130778 28.2175L11.39 35.8449L6.44387 48.2604L18.209 44.4699Z" fill="white"/>
</svg>
