<svg width="548" height="455" viewBox="0 0 548 455" fill="none" xmlns="http://www.w3.org/2000/svg">
<g clip-path="url(#clip0)">
<path d="M497.571 443.549C494.846 447.218 491.468 450.355 487.606 452.802C486.785 453.322 485.942 453.813 485.084 454.267H464.896C465.138 453.784 465.373 453.293 465.6 452.802C471.86 439.605 473.822 424.781 471.213 410.412C468.603 396.043 461.553 382.852 451.052 372.694C463.254 376.46 474.532 383.801 481.909 394.212C485.493 399.282 488.042 405.008 489.41 411.063C490.629 398.954 488.692 386.735 483.786 375.596C493.692 383.647 501.407 394.674 504.347 407.085C507.287 419.503 505.154 433.284 497.571 443.549Z" fill="#F0F0F0"/>
<path d="M82.6234 12.0688C82.0151 12.0699 81.432 12.3122 81.0022 12.7423C80.5725 13.1725 80.3311 13.7555 80.3311 14.3633C80.3311 14.9712 80.5725 15.5542 81.0022 15.9843C81.432 16.4145 82.0151 16.6567 82.6234 16.6578H250.294C250.902 16.6567 251.485 16.4145 251.915 15.9843C252.345 15.5542 252.586 14.9712 252.586 14.3633C252.586 13.7555 252.345 13.1725 251.915 12.7423C251.485 12.3122 250.902 12.0699 250.294 12.0688H82.6234Z" fill="#EA544A"/>
<path d="M82.6236 25.8357C82.0145 25.8344 81.4299 26.0749 80.9983 26.5043C80.5667 26.9337 80.3236 27.5168 80.3223 28.1253C80.321 28.7339 80.5617 29.318 80.9915 29.7492C81.4212 30.1804 82.0048 30.4234 82.6139 30.4247H188.617C188.919 30.4252 189.218 30.3663 189.497 30.2512C189.776 30.1361 190.03 29.9672 190.244 29.7541C190.457 29.541 190.627 29.2879 190.742 29.0092C190.858 28.7306 190.918 28.4319 190.918 28.1302C190.918 27.8285 190.858 27.5298 190.742 27.2512C190.627 26.9725 190.457 26.7194 190.244 26.5063C190.03 26.2932 189.776 26.1242 189.497 26.0092C189.218 25.8941 188.919 25.8352 188.617 25.8357H82.6236Z" fill="#EA544A"/>
<path d="M82.6234 94.8579C82.0151 94.859 81.432 95.1012 81.0022 95.5314C80.5725 95.9616 80.3311 96.5446 80.3311 97.1524C80.3311 97.7602 80.5725 98.3432 81.0022 98.7734C81.432 99.2036 82.0151 99.4458 82.6234 99.4469H250.294C250.902 99.4458 251.485 99.2036 251.915 98.7734C252.345 98.3432 252.586 97.7602 252.586 97.1524C252.586 96.5446 252.345 95.9616 251.915 95.5314C251.485 95.1012 250.902 94.859 250.294 94.8579H82.6234Z" fill="#B1B1B1"/>
<path d="M82.6236 108.625C82.0145 108.624 81.4299 108.864 80.9983 109.294C80.5667 109.723 80.3236 110.306 80.3223 110.915C80.321 111.523 80.5617 112.107 80.9915 112.539C81.4212 112.97 82.0048 113.213 82.6139 113.214H188.617C188.919 113.215 189.218 113.156 189.497 113.041C189.776 112.925 190.03 112.757 190.244 112.543C190.457 112.33 190.627 112.077 190.742 111.799C190.858 111.52 190.918 111.221 190.918 110.919C190.918 110.618 190.858 110.319 190.742 110.04C190.627 109.762 190.457 109.509 190.244 109.296C190.03 109.082 189.776 108.914 189.497 108.798C189.218 108.683 188.919 108.624 188.617 108.625H82.6236Z" fill="#B1B1B1"/>
<path d="M82.6234 177.647C82.0151 177.648 81.432 177.891 81.0022 178.321C80.5725 178.751 80.3311 179.334 80.3311 179.942C80.3311 180.55 80.5725 181.133 81.0022 181.563C81.432 181.993 82.0151 182.235 82.6234 182.236H250.294C250.902 182.235 251.485 181.993 251.915 181.563C252.345 181.133 252.586 180.55 252.586 179.942C252.586 179.334 252.345 178.751 251.915 178.321C251.485 177.891 250.902 177.648 250.294 177.647H82.6234Z" fill="#B1B1B1"/>
<path d="M82.6236 191.414C82.0145 191.413 81.4299 191.654 80.9983 192.083C80.5667 192.512 80.3236 193.095 80.3223 193.704C80.321 194.313 80.5617 194.897 80.9915 195.328C81.4212 195.759 82.0048 196.002 82.6139 196.003H188.617C188.919 196.004 189.218 195.945 189.497 195.83C189.776 195.715 190.03 195.546 190.244 195.333C190.457 195.12 190.627 194.866 190.742 194.588C190.858 194.309 190.918 194.01 190.918 193.709C190.918 193.407 190.858 193.108 190.742 192.83C190.627 192.551 190.457 192.298 190.244 192.085C190.03 191.872 189.776 191.703 189.497 191.588C189.218 191.473 188.919 191.414 188.617 191.414H82.6236Z" fill="#B1B1B1"/>
<path d="M21.103 28.2198H21.0952C20.9056 28.2186 20.7184 28.1772 20.5462 28.0982C20.3739 28.0192 20.2204 27.9044 20.096 27.7615L12.9834 19.6018C12.8678 19.4698 12.7794 19.3162 12.7233 19.15C12.6672 18.9838 12.6445 18.8081 12.6564 18.6331C12.6683 18.4581 12.7147 18.2872 12.7928 18.1301C12.8709 17.973 12.9792 17.8328 13.1116 17.7176C13.244 17.6024 13.3979 17.5144 13.5643 17.4586C13.7308 17.4029 13.9067 17.3805 14.0818 17.3927C14.257 17.4049 14.428 17.4516 14.5851 17.5299C14.7422 17.6083 14.8822 17.7168 14.9973 17.8493L21.1148 24.8674L39.4796 4.28204C39.5961 4.1509 39.7374 4.044 39.8953 3.96746C40.0533 3.89093 40.2247 3.84626 40.4 3.83602C40.5752 3.82577 40.7507 3.85016 40.9165 3.90777C41.0822 3.96537 41.2351 4.05509 41.3661 4.17176C41.4971 4.28843 41.6039 4.42977 41.6802 4.58769C41.7565 4.74562 41.8009 4.91703 41.8108 5.09212C41.8207 5.2672 41.796 5.44254 41.738 5.60806C41.68 5.77359 41.59 5.92607 41.473 6.05678L22.0997 27.7733C21.9744 27.9137 21.8209 28.0261 21.6491 28.103C21.4774 28.1799 21.2913 28.2197 21.103 28.2198Z" fill="#EA544A"/>
<path d="M21.2653 42.4936C15.6254 42.4936 10.2165 40.2551 6.22847 36.2706C2.24045 32.286 0 26.8818 0 21.2468C0 15.6118 2.24045 10.2076 6.22847 6.22305C10.2165 2.2385 15.6254 0 21.2653 0C21.4598 0 21.6463 0.077189 21.7838 0.214587C21.9214 0.351986 21.9986 0.538338 21.9986 0.732649C21.9986 0.926959 21.9214 1.11331 21.7838 1.25071C21.6463 1.38811 21.4598 1.4653 21.2653 1.4653C17.3495 1.46537 13.5217 2.62559 10.2658 4.79925C7.00999 6.97292 4.47239 10.0624 2.97392 13.677C1.47545 17.2916 1.08342 21.269 1.84739 25.1062C2.61137 28.9434 4.49705 32.4681 7.26597 35.2346C10.0349 38.001 13.5627 39.885 17.4033 40.6483C21.2438 41.4115 25.2247 41.0197 28.8424 39.5225C32.4601 38.0253 35.5523 35.4898 37.7278 32.2368C39.9033 28.9838 41.0644 25.1592 41.0644 21.2468C41.0644 21.0525 41.1417 20.8661 41.2792 20.7288C41.4167 20.5914 41.6032 20.5142 41.7977 20.5142C41.9922 20.5142 42.1787 20.5914 42.3162 20.7288C42.4537 20.8661 42.531 21.0525 42.531 21.2468C42.5246 26.8799 40.282 32.2804 36.2953 36.2636C32.3086 40.2468 26.9033 42.4873 21.2653 42.4936Z" fill="#3F3D56"/>
<path d="M329.817 295.283H329.809C329.619 295.281 329.432 295.24 329.26 295.161C329.088 295.082 328.934 294.967 328.81 294.824L321.697 286.665C321.582 286.533 321.493 286.379 321.437 286.213C321.381 286.047 321.358 285.871 321.37 285.696C321.382 285.521 321.429 285.35 321.507 285.193C321.585 285.036 321.693 284.896 321.825 284.78C321.958 284.665 322.112 284.577 322.278 284.521C322.445 284.466 322.621 284.443 322.796 284.456C322.971 284.468 323.142 284.514 323.299 284.593C323.456 284.671 323.596 284.78 323.711 284.912L329.829 291.93L348.193 271.345C348.31 271.214 348.451 271.108 348.609 271.031C348.767 270.955 348.938 270.911 349.113 270.901C349.288 270.891 349.464 270.915 349.629 270.973C349.795 271.03 349.947 271.12 350.078 271.236C350.209 271.353 350.316 271.494 350.392 271.652C350.468 271.81 350.513 271.981 350.523 272.156C350.533 272.33 350.508 272.506 350.451 272.671C350.393 272.836 350.303 272.989 350.187 273.12L330.814 294.836C330.688 294.977 330.535 295.089 330.363 295.166C330.191 295.243 330.005 295.283 329.817 295.283Z" fill="#EA544A"/>
<path d="M329.979 309.557C324.339 309.557 318.93 307.318 314.942 303.334C310.954 299.349 308.714 293.945 308.714 288.31C308.714 282.675 310.954 277.271 314.942 273.286C318.93 269.302 324.339 267.063 329.979 267.063C330.174 267.063 330.36 267.14 330.498 267.278C330.635 267.415 330.712 267.601 330.712 267.796C330.712 267.99 330.635 268.176 330.498 268.314C330.36 268.451 330.174 268.528 329.979 268.528C326.063 268.528 322.235 269.688 318.98 271.862C315.724 274.036 313.186 277.125 311.688 280.74C310.189 284.354 309.797 288.332 310.561 292.169C311.325 296.006 313.21 299.531 315.979 302.297C318.748 305.064 322.276 306.948 326.117 307.711C329.957 308.475 333.938 308.083 337.556 306.586C341.174 305.088 344.266 302.553 346.441 299.3C348.617 296.047 349.778 292.222 349.778 288.31C349.778 288.116 349.855 287.929 349.993 287.792C350.13 287.654 350.317 287.577 350.511 287.577C350.706 287.577 350.892 287.654 351.03 287.792C351.167 287.929 351.245 288.116 351.245 288.31C351.238 293.943 348.996 299.343 345.009 303.326C341.022 307.31 335.617 309.55 329.979 309.557Z" fill="#3F3D56"/>
<path d="M471.725 277.016C471.035 276.189 470.536 275.22 470.261 274.178C469.987 273.136 469.945 272.047 470.137 270.988C470.33 269.928 470.752 268.923 471.375 268.044C471.999 267.166 472.807 266.434 473.744 265.901L468.96 240.16L481.505 245.45L484.125 269.083C484.916 270.715 485.082 272.58 484.589 274.326C484.096 276.071 482.98 277.575 481.451 278.553C479.923 279.531 478.088 279.914 476.296 279.631C474.503 279.348 472.877 278.418 471.725 277.016V277.016Z" fill="#E2AEB6"/>
<path d="M355.423 277.016C356.112 276.189 356.612 275.22 356.886 274.178C357.161 273.136 357.203 272.047 357.011 270.988C356.818 269.928 356.395 268.923 355.772 268.044C355.149 267.166 354.341 266.434 353.404 265.901L358.188 240.16L345.642 245.45L343.023 269.083C342.231 270.715 342.066 272.58 342.559 274.326C343.051 276.071 344.168 277.575 345.696 278.553C347.225 279.531 349.059 279.914 350.852 279.631C352.644 279.348 354.271 278.418 355.423 277.016V277.016Z" fill="#E2AEB6"/>
<path d="M402.102 445.327H393.111L388.835 410.681H402.103L402.102 445.327Z" fill="#E2AEB6"/>
<path d="M404.395 454.033L375.407 454.032V453.666C375.407 450.676 376.596 447.809 378.712 445.695C380.828 443.581 383.698 442.393 386.69 442.393H386.691L404.395 442.394L404.395 454.033Z" fill="#2F2E41"/>
<path d="M439.499 445.327H430.509L426.232 410.681H439.501L439.499 445.327Z" fill="#E2AEB6"/>
<path d="M441.792 454.033L412.805 454.032V453.666C412.805 450.676 413.994 447.809 416.11 445.695C418.225 443.581 421.095 442.393 424.087 442.393H424.088L441.793 442.394L441.792 454.033Z" fill="#2F2E41"/>
<path d="M386.015 235.938L374.343 248.784L379.476 344.972L388.275 437.05H404.306L419.073 272.625L425.647 437.05H442.83L462.994 243.792L386.015 235.938Z" fill="#2F2E41"/>
<path d="M460.138 124.209L428.973 104.794L424.573 93.8042H395.438L392.309 104.061L360.044 123.843L372.876 179.89L374.343 248.759C374.343 248.759 424.207 278.798 463.071 245.096L447.305 164.871L460.138 124.209Z" fill="#EA544A"/>
<path d="M369.943 124.942L360.044 123.843C360.044 123.843 350.144 131.536 348.678 148.387C347.211 165.237 348.678 197.281 348.678 197.281L342.812 259.749L355.277 260.482L371.41 198.207L372.876 169.325L369.943 124.942Z" fill="#EA544A"/>
<path d="M449.872 124.942L459.771 123.843C459.771 123.843 469.67 131.536 471.137 148.387C472.604 165.237 478.47 197.281 478.47 197.281L484.336 259.749L471.87 260.482L455.738 198.207L446.938 169.325L449.872 124.942Z" fill="#EA544A"/>
<path d="M428.669 73.5333C435.041 61.8873 430.757 47.2854 419.101 40.9192C407.445 34.5529 392.83 38.8329 386.458 50.4789C380.086 62.125 384.37 76.7268 396.026 83.0931C407.682 89.4594 422.297 85.1793 428.669 73.5333Z" fill="#E2AEB6"/>
<path d="M435.04 62.4695C435.303 60.9843 434.995 59.4548 434.179 58.1861C434.965 56.9251 435.513 55.5304 435.794 54.0715C436.449 49.7002 433.098 48.0988 430.938 44.7975C430.001 43.3652 430.426 42.7993 430.372 41.2772C430.284 39.222 429.621 37.2325 428.461 35.5333C427.127 33.3237 425.702 31.0199 423.465 29.5839C418.762 26.5662 412.738 28.5722 407.349 27.2848C404.974 26.7172 402.756 25.5093 400.388 24.9041C398.02 24.2989 395.231 24.4559 393.858 26.1866C393.225 26.9857 392.97 28.0266 392.335 28.8242C391.072 30.4095 388.674 30.6742 386.724 31.4686C382.41 33.2252 380.189 37.8717 380.284 42.4591C380.312 43.4204 380.418 44.3778 380.601 45.3219C379.853 47.0693 379.487 48.9568 379.53 50.8572C379.624 55.4445 381.67 59.9761 384.115 64.1581C384.456 62.8503 384.929 61.5805 385.527 60.3682C385.696 59.9465 385.977 59.5789 386.34 59.3054C387.171 58.7738 388.357 59.1718 389.407 59.2136C391.583 59.3001 393.314 57.7673 394.338 56.0537C395.361 54.34 395.925 52.3654 397.099 50.7475C397.341 50.3464 397.671 50.0046 398.063 49.7474C398.455 49.4901 398.9 49.3239 399.365 49.261C400.181 49.2957 400.975 49.541 401.669 49.973C405.211 51.7867 408.871 53.757 412.754 54.0014C414.083 53.9684 415.412 54.0817 416.717 54.3394C419.659 55.1874 421.406 58.3039 421.789 61.1371C422.172 63.9702 421.59 66.7621 421.82 69.5963C422.05 72.4306 423.412 75.6044 426.224 76.8556C426.52 77.0254 426.871 77.0718 427.201 76.9846C427.417 76.8674 427.588 76.6826 427.688 76.4586L432.955 67.4029C433.956 65.9051 434.664 64.231 435.04 62.4695Z" fill="#2F2E41"/>
<path d="M548 454.267C548 454.461 547.922 454.648 547.785 454.785C547.647 454.922 547.461 454.999 547.267 455H267.885C267.69 455 267.504 454.923 267.366 454.785C267.229 454.648 267.151 454.462 267.151 454.267C267.151 454.073 267.229 453.887 267.366 453.749C267.504 453.612 267.69 453.535 267.885 453.535H547.267C547.461 453.535 547.648 453.613 547.785 453.75C547.922 453.887 548 454.073 548 454.267Z" fill="#CACACA"/>
<path d="M253.835 61.4082H0.850586V62.8735H253.835V61.4082Z" fill="#B1B1B1"/>
<path d="M253.835 143.465H0.850586V144.93H253.835V143.465Z" fill="#B1B1B1"/>
<path d="M253.835 225.521H0.850586V226.987H253.835V225.521Z" fill="#B1B1B1"/>
</g>
<defs>
<clipPath id="clip0">
<rect width="548" height="455" fill="white"/>
</clipPath>
</defs>
</svg>
