<svg width="35" height="35" viewBox="0 0 35 35" fill="none" xmlns="http://www.w3.org/2000/svg">
<path d="M29.8743 5.12559C26.5691 1.82034 22.1745 0 17.5 0C12.8256 0 8.43097 1.82034 5.12565 5.12559C1.82034 8.4309 0 12.8255 0 17.5C0 22.1745 1.82027 26.5691 5.12565 29.8744C8.43097 33.1797 12.8256 35 17.5 35C22.1745 35 26.5691 33.1797 29.8744 29.8744C33.1797 26.5691 35 22.1745 35 17.5C35 12.8255 33.1797 8.4309 29.8743 5.12559ZM18.5984 25.1152H18.5254V27.3848C18.5254 27.9511 18.0664 28.4102 17.5 28.4102C16.9338 28.4102 16.4746 27.9511 16.4746 27.3848V25.1152H14.2051C13.6389 25.1152 13.1798 24.6561 13.1798 24.0898C13.1798 23.5236 13.6389 23.0645 14.2051 23.0645H18.5985C19.8499 23.0645 20.8679 22.0463 20.8679 20.7949C20.8679 19.5435 19.8498 18.5254 18.5984 18.5254H16.4017C14.0195 18.5254 12.0814 16.5873 12.0814 14.2051C12.0814 11.8229 14.0196 9.88483 16.4017 9.88483H16.4746V7.6153C16.4746 7.04901 16.9338 6.58991 17.5 6.58991C18.0664 6.58991 18.5254 7.04901 18.5254 7.6153V9.88483H20.795C21.3612 9.88483 21.8204 10.3439 21.8204 10.9102C21.8204 11.4765 21.3612 11.9356 20.795 11.9356H16.4017C15.1502 11.9356 14.1322 12.9537 14.1322 14.2051C14.1322 15.4565 15.1503 16.4746 16.4017 16.4746H18.5984C20.9806 16.4746 22.9186 18.4127 22.9186 20.7949C22.9186 23.1771 20.9806 25.1152 18.5984 25.1152Z" fill="#767676"/>
</svg>
