<svg width="35" height="35" viewBox="0 0 35 35" fill="none" xmlns="http://www.w3.org/2000/svg">
<path d="M34.0564 15.2233C34.0556 15.2225 34.0548 15.2217 34.054 15.2209L19.7767 0.944214C19.1682 0.335388 18.3591 0 17.4984 0C16.6378 0 15.8287 0.335121 15.2199 0.943947L0.950125 15.2134C0.945318 15.2182 0.940511 15.2233 0.935705 15.2281C-0.31399 16.485 -0.311854 18.5243 0.941847 19.778C1.51462 20.3511 2.27112 20.683 3.07995 20.7177C3.11279 20.7209 3.1459 20.7225 3.17928 20.7225H3.74832V31.2293C3.74832 33.3084 5.43995 35 7.51957 35H13.1053C13.6714 35 14.1307 34.541 14.1307 33.9746V25.7373C14.1307 24.7886 14.9024 24.0168 15.8511 24.0168H19.1457C20.0945 24.0168 20.8662 24.7886 20.8662 25.7373V33.9746C20.8662 34.541 21.3252 35 21.8916 35H27.4773C29.5569 35 31.2486 33.3084 31.2486 31.2293V20.7225H31.7762C32.6366 20.7225 33.4457 20.3874 34.0548 19.7786C35.3098 18.5227 35.3103 16.4799 34.0564 15.2233Z" fill="#767676"/>
</svg>
