<svg width="35" height="35" viewBox="0 0 35 35" fill="none" xmlns="http://www.w3.org/2000/svg">
<path d="M17.5 0C7.85011 0 0 7.85011 0 17.5C0 27.1499 7.85011 35 17.5 35C27.1499 35 35 27.1499 35 17.5C35 7.85011 27.1499 0 17.5 0ZM17.5 7.29176C18.3051 7.29176 18.9582 7.94491 18.9582 8.75C18.9582 9.55509 18.3051 10.2082 17.5 10.2082C16.6949 10.2082 16.0418 9.55509 16.0418 8.75C16.0418 7.94491 16.6949 7.29176 17.5 7.29176ZM20.7812 27.7082H14.2188C13.4123 27.7082 12.7605 27.0551 12.7605 26.25C12.7605 25.4449 13.4123 24.7918 14.2188 24.7918H16.0418V16.0418H14.948C14.1416 16.0418 13.4895 15.3883 13.4895 14.5832C13.4895 13.7784 14.1416 13.125 14.948 13.125H17.5C18.3064 13.125 18.9582 13.7784 18.9582 14.5832V24.7918H20.7812C21.5877 24.7918 22.2395 25.4449 22.2395 26.25C22.2395 27.0551 21.5877 27.7082 20.7812 27.7082Z" fill="#767676"/>
</svg>
