<svg width="35" height="35" viewBox="0 0 35 35" fill="none" xmlns="http://www.w3.org/2000/svg">
<path d="M32.2368 23.0448C30.0779 23.0448 27.9632 22.7077 25.9589 22.0463C24.9808 21.7092 23.87 21.9689 23.2271 22.6248L19.2537 25.6255C14.6945 23.1922 11.7766 20.2761 9.37635 15.75L12.2961 11.8705C13.0311 11.1355 13.2945 10.0597 12.9795 9.05211C12.3126 7.03501 11.9737 4.91843 11.9737 2.76316C11.9737 1.23971 10.734 0 9.21056 0H2.76316C1.23971 0 0 1.23971 0 2.76316C0 20.5376 14.4624 35 32.2368 35C33.7603 35 35 33.7603 35 32.2368V25.8079C35 24.2845 33.7603 23.0448 32.2368 23.0448Z" fill="#767676"/>
</svg>
