<svg width="35" height="35" viewBox="0 0 35 35" fill="none" xmlns="http://www.w3.org/2000/svg">
<path d="M17.5 0C7.85011 0 0 7.85011 0 17.5C0 27.1499 7.85011 35 17.5 35C27.1499 35 35 27.1499 35 17.5C35 7.85011 27.1499 0 17.5 0ZM17.5 27.7082C16.6949 27.7082 16.0418 27.0551 16.0418 26.25C16.0418 25.4449 16.6949 24.7918 17.5 24.7918C18.3051 24.7918 18.9582 25.4449 18.9582 26.25C18.9582 27.0551 18.3051 27.7082 17.5 27.7082ZM19.8085 18.4362C19.2923 18.6739 18.9582 19.1946 18.9582 19.762V20.4168C18.9582 21.2216 18.3064 21.875 17.5 21.875C16.6936 21.875 16.0418 21.2216 16.0418 20.4168V19.762C16.0418 18.06 17.042 16.4997 18.5865 15.7865C20.0726 15.1026 21.1457 13.2868 21.1457 12.3957C21.1457 10.3864 19.511 8.75 17.5 8.75C15.489 8.75 13.8543 10.3864 13.8543 12.3957C13.8543 13.2008 13.2022 13.8543 12.3957 13.8543C11.5893 13.8543 10.9375 13.2008 10.9375 12.3957C10.9375 8.77777 13.8818 5.83324 17.5 5.83324C21.1182 5.83324 24.0625 8.77777 24.0625 12.3957C24.0625 14.3661 22.3532 17.2623 19.8085 18.4362Z" fill="#767676"/>
</svg>
