<svg width="35" height="35" viewBox="0 0 35 35" fill="none" xmlns="http://www.w3.org/2000/svg">
<path d="M18.2383 16.7948C18.2325 16.7888 18.2309 16.7808 18.225 16.7749L12.3732 10.923V7.24606C12.3732 6.97364 12.265 6.71333 12.0728 6.52104L5.92046 0.300402C5.62808 0.00809775 5.18648 -0.0810429 4.80292 0.0781661C4.41942 0.23635 4.17005 0.610891 4.17005 1.02542V4.10159H1.02552C0.611053 4.10152 0.236511 4.35083 0.0783279 4.7344C-0.0808811 5.11789 0.00723413 5.55854 0.300633 5.85194L6.52134 12.0726C6.71363 12.2649 6.97394 12.373 7.24629 12.373H10.9233L16.7751 18.2248C16.781 18.2307 16.789 18.2324 16.795 18.2381C17.1942 18.6191 17.8006 18.6242 18.2052 18.2381C18.6312 17.8315 18.6216 17.1964 18.2383 16.7948Z" fill="#767676"/>
<path d="M17.5001 0.00012207C14.8764 0.00012207 12.3957 0.667651 10.1619 1.71034L13.3074 4.85582C14.6275 4.41682 16.0346 4.17004 17.5002 4.17004C24.8501 4.16998 30.8301 10.1501 30.8301 17.5C30.8301 24.8499 24.8501 30.83 17.5001 30.83C10.1501 30.83 4.1701 24.85 4.1701 17.5C4.1701 16.0344 4.41694 14.6273 4.85588 13.3072L1.71039 10.1617C0.667842 12.3956 0.000244141 14.8763 0.000244141 17.5C0.000244141 27.1119 7.88816 34.9999 17.5001 34.9999C27.1121 34.9999 35 27.1119 35 17.5C35 7.88804 27.1122 0.00012207 17.5001 0.00012207Z" fill="#767676"/>
<path d="M17.5002 8.27155C16.4163 8.27155 15.3909 8.49371 14.424 8.83845V10.074L16.7945 12.4445C17.0273 12.4119 17.2585 12.3731 17.5002 12.3731C20.327 12.3731 22.6271 14.6732 22.6271 17.5001C22.6271 20.3269 20.327 22.627 17.5002 22.627C14.6733 22.627 12.3732 20.3269 12.3732 17.5001C12.3732 17.2583 12.4121 17.0272 12.4446 16.7944L10.0742 14.4238H8.83863C8.4939 15.3908 8.27173 16.4162 8.27173 17.5C8.27173 22.5889 12.4114 26.7284 17.5002 26.7284C22.589 26.7284 26.7287 22.5889 26.7287 17.5C26.7287 12.4111 22.5891 8.27155 17.5002 8.27155Z" fill="#767676"/>
</svg>
